<svg width="48" height="44" viewBox="0 0 48 44" fill="none" xmlns="http://www.w3.org/2000/svg">
<g filter="url(#filter0_d_92_846)">
<path d="M42.0574 2.15419C41.5894 1.70283 41.0358 1.34978 40.4291 1.11588C39.8225 0.881986 39.1751 0.771975 38.5253 0.792345C32.9749 0.976552 28.4582 2.18315 25.0918 4.38077C24.833 4.54967 24.5306 4.63961 24.2215 4.63961C23.9124 4.63961 23.61 4.54967 23.3511 4.38077C19.9871 2.18395 15.468 0.977357 9.91766 0.79315C9.26779 0.771607 8.62023 0.881079 8.01355 1.11504C7.40687 1.34901 6.85348 1.70268 6.38635 2.155C5.91972 2.60334 5.54889 3.14167 5.29628 3.73745C5.04368 4.33322 4.91455 4.97404 4.91672 5.62115V26.5781C4.909 27.8289 5.39065 29.0331 6.25878 29.9335C7.12691 30.834 8.31271 31.3593 9.56292 31.3973C14.4697 31.5582 18.5529 32.6441 21.7021 34.6334C22.4579 35.1064 23.3315 35.3573 24.2231 35.3573C25.1147 35.3573 25.9883 35.1064 26.7441 34.6334C29.8917 32.6441 33.9756 31.5558 38.8816 31.3973C40.1318 31.3593 41.3176 30.834 42.1858 29.9335C43.0539 29.0331 43.5355 27.8289 43.5278 26.5781V5.62115C43.53 4.97385 43.4008 4.33284 43.1481 3.73691C42.8953 3.14099 42.5243 2.60256 42.0574 2.15419ZM9.66669 28.1805C9.2545 28.1609 8.86561 27.9837 8.5804 27.6854C8.2952 27.3872 8.13549 26.9908 8.13431 26.5781V5.62115C8.13384 5.40545 8.17707 5.19189 8.26141 4.99336C8.34574 4.79483 8.46942 4.61545 8.62499 4.46603C8.92806 4.17101 9.33463 4.00642 9.75758 4.00752H9.81228C14.7642 4.1684 18.7274 5.20366 21.5919 7.07309C21.9115 7.27759 22.2545 7.44314 22.6135 7.56618V31.448C18.6277 29.3224 14.1837 28.2009 9.66669 28.1805ZM40.3102 26.5781C40.3091 26.9901 40.15 27.386 39.8656 27.6841C39.5812 27.9822 39.1934 28.1599 38.7819 28.1805C34.2633 28.2 29.8178 29.3219 25.8311 31.4488V7.56699C26.1899 7.44361 26.5328 7.27809 26.8527 7.07389C29.7171 5.20447 33.6804 4.17243 38.6315 4.00833C38.8504 3.99807 39.0691 4.03347 39.2736 4.11226C39.4782 4.19106 39.6641 4.31153 39.8196 4.46603C39.9751 4.61545 40.0988 4.79483 40.1831 4.99336C40.2675 5.19189 40.3107 5.40545 40.3102 5.62115V26.5781Z" fill="black"/>
</g>
<defs>
<filter id="filter0_d_92_846" x="0.916626" y="0.789955" width="46.6113" height="42.5673" filterUnits="userSpaceOnUse" color-interpolation-filters="sRGB">
<feFlood flood-opacity="0" result="BackgroundImageFix"/>
<feColorMatrix in="SourceAlpha" type="matrix" values="0 0 0 0 0 0 0 0 0 0 0 0 0 0 0 0 0 0 127 0" result="hardAlpha"/>
<feOffset dy="4"/>
<feGaussianBlur stdDeviation="2"/>
<feComposite in2="hardAlpha" operator="out"/>
<feColorMatrix type="matrix" values="0 0 0 0 0 0 0 0 0 0 0 0 0 0 0 0 0 0 0.25 0"/>
<feBlend mode="normal" in2="BackgroundImageFix" result="effect1_dropShadow_92_846"/>
<feBlend mode="normal" in="SourceGraphic" in2="effect1_dropShadow_92_846" result="shape"/>
</filter>
</defs>
</svg>
