<svg width="31" height="41" viewBox="0 0 31 41" fill="none" xmlns="http://www.w3.org/2000/svg">
<path d="M30.0411 35.2692C30.0411 35.2692 30.0411 35.2954 30.0411 35.3477C30.0411 36.8131 29.5065 38.0692 28.4375 39.1159C27.3684 40.1627 26.0736 40.686 24.5531 40.686H6.30752C4.78705 40.686 3.49228 40.1627 2.4232 39.1159C1.35412 38.0692 0.81958 36.8131 0.81958 35.3477C0.81958 35.3477 0.81958 35.3215 0.81958 35.2692L2.95774 9.28417C3.00525 8.65613 3.33786 8.34211 3.95555 8.34211H8.23186C8.23186 6.14398 8.94458 4.28603 10.37 2.76828C11.7955 1.25052 13.4822 0.491642 15.4303 0.491642C17.3784 0.491642 19.0652 1.25052 20.4906 2.76828C21.9161 4.28603 22.6288 6.14398 22.6288 8.34211H26.9051C27.5228 8.34211 27.8554 8.65613 27.9029 9.28417L30.0411 35.2692ZM19.0652 4.33837C19.0652 4.33837 18.8158 4.06361 18.3168 3.51407C17.8179 2.96454 16.8558 2.68977 15.4303 2.68977C14.0049 2.68977 12.7933 3.23931 11.7955 4.33837C10.7977 5.43744 10.275 6.77201 10.2275 8.34211H20.6332C20.5857 6.77201 20.063 5.43744 19.0652 4.33837ZM24.5531 38.4879C25.5034 38.4879 26.3112 38.187 26.9764 37.5851C27.6416 36.9832 27.998 36.2374 28.0455 35.3477L25.9786 10.5402H22.6288V13.9159C22.6288 14.23 22.5338 14.4916 22.3437 14.701C22.1537 14.9103 21.9161 15.015 21.631 15.015C21.3459 15.015 21.1083 14.9103 20.9183 14.701C20.7282 14.4916 20.6332 14.23 20.6332 13.9159V10.5402H10.2275V13.9159C10.2275 14.23 10.1325 14.4916 9.94239 14.701C9.75233 14.9103 9.51476 15.015 9.22967 15.015C8.94458 15.015 8.70701 14.9103 8.51695 14.701C8.32689 14.4916 8.23186 14.23 8.23186 13.9159V10.5402H4.81081L2.8152 35.3477C2.86271 36.2374 3.21907 36.9832 3.88427 37.5851C4.54948 38.187 5.35723 38.4879 6.30752 38.4879H24.5531Z" fill="white"/>
</svg>
