<svg width="24" height="24" viewBox="0 0 24 24" fill="none" xmlns="http://www.w3.org/2000/svg">
<path d="M3.67188 20.8518H20.7504M13.9042 5.96657C13.9042 5.96657 13.9042 7.51752 15.4552 9.06846C17.0061 10.6194 18.5571 10.6194 18.5571 10.6194M7.77038 17.994L11.0274 17.5287C11.4972 17.4616 11.9325 17.2439 12.2681 16.9084L20.108 9.06846C20.9646 8.2119 20.9646 6.82313 20.108 5.96656L18.5571 4.41562C17.7005 3.55905 16.3117 3.55905 15.4552 4.41562L7.61528 12.2555C7.2797 12.5911 7.06202 13.0265 6.9949 13.4963L6.52962 16.7533C6.42622 17.477 7.0466 18.0974 7.77038 17.994Z" stroke="#6C7275" stroke-width="2.13482" stroke-linecap="round"/>
</svg>
