<svg width="263" height="56" viewBox="0 0 263 56" fill="none" xmlns="http://www.w3.org/2000/svg">
<path d="M188.021 55.743C163.384 55.743 138.748 55.743 114.111 55.743C76.4866 55.743 38.8627 55.743 1.23792 55.743C1.02116 55.743 0.804394 55.7439 0.587631 55.7448C0.198615 55.7459 0.00381726 55.5593 0.00323922 55.1848C0.00323922 53.195 0.00323922 51.2043 0.00323922 49.2145C0.00323922 33.3949 0.00323922 17.5753 0.00323922 1.75561C0.00323922 1.33758 0.0275166 0.917808 0.00237217 0.501501C-0.018437 0.157897 0.0951466 0.0583642 0.442834 0.0592297C6.03444 0.0696158 11.6269 0.0670192 17.2185 0.0670192C48.0543 0.0670192 78.8892 0.0670193 109.725 0.0635572C110.691 0.0635572 111.658 -0.00568291 112.624 0.000375602C140.509 0.157897 168.395 0.0349957 196.28 0.0635572C218.171 0.0860603 240.063 0.0678847 261.953 0.0670192C262.068 0.0670192 262.185 0.0670192 262.3 0.0592297C262.562 0.0410542 262.664 0.164821 262.659 0.420144C262.65 0.823468 262.655 1.22766 262.655 1.63098C262.656 19.4984 262.655 37.3658 262.667 55.2332C262.667 55.64 262.537 55.7543 262.146 55.7543C237.437 55.7482 212.729 55.7482 188.021 55.7482V55.743ZM56.7595 2.9076C39.3908 2.9076 22.022 2.9076 4.65323 2.9076C4.16161 2.9076 3.67086 2.91625 3.17925 2.90154C2.9148 2.89375 2.81162 2.99328 2.82462 3.25466C2.8385 3.54201 2.82982 3.83109 2.82982 4.1193C2.82982 20.1986 2.82982 36.2788 2.82029 52.358C2.82029 52.7588 2.91913 52.9544 3.35179 52.9094C3.6093 52.8825 3.87115 52.905 4.13127 52.905C39.2295 52.905 74.3286 52.905 109.427 52.905C109.745 52.905 110.062 52.8981 110.381 52.9042C110.631 52.9085 110.745 52.8107 110.745 52.5459C110.739 50.3535 110.743 48.1621 110.742 45.9698C110.742 45.8737 110.77 45.7456 110.646 45.711C110.53 45.6781 110.472 45.7923 110.411 45.8694C110.078 46.2891 109.707 46.67 109.285 47.0015C108.139 47.8998 106.822 48.3897 105.391 48.5395C103.774 48.7091 102.161 48.6684 100.586 48.1811C98.3849 47.5008 97.1727 45.936 96.623 43.7766C96.2294 42.2282 96.1236 40.6487 96.121 39.0596C96.1141 34.2578 96.1175 29.4551 96.1054 24.6533C96.1028 23.5524 95.9181 23.4018 94.7996 23.3888C94.0063 23.3793 93.2095 23.446 92.4196 23.3265C91.7918 23.2313 91.3574 22.8479 91.2386 22.2256C90.8936 20.4106 91.5222 19.5148 93.3369 19.5322C94.0592 19.5391 94.7823 19.5434 95.5045 19.527C96.0144 19.5157 96.2372 19.2864 96.2701 18.7826C96.2866 18.5238 96.2857 18.2642 96.2857 18.0045C96.2875 16.4466 96.2875 14.8896 96.2866 13.3317C96.2866 12.8894 96.3655 12.4662 96.6438 12.1105C97.1649 11.4414 98.2175 11.1749 99.0872 11.4778C100.053 11.8145 100.443 12.3615 100.445 13.3862C100.448 15.1311 100.442 16.8759 100.453 18.6208C100.458 19.3772 100.624 19.5304 101.375 19.5322C103.153 19.5348 104.93 19.5356 106.708 19.5304C107.159 19.5296 107.602 19.5642 108.039 19.6802C108.749 19.8688 109.234 20.4669 109.284 21.2164C109.348 22.2005 108.995 22.8557 108.251 23.1612C107.7 23.3871 107.122 23.3854 106.546 23.388C104.855 23.3958 103.164 23.3888 101.473 23.3932C100.878 23.3949 100.714 23.5239 100.542 24.0899C100.427 24.469 100.445 24.8611 100.445 25.2488C100.442 28.3057 100.439 31.3636 100.446 34.4205C100.451 36.496 100.388 38.5723 100.608 40.6435C100.696 41.4778 100.8 42.3104 101.152 43.0764C101.635 44.1297 102.559 44.553 103.65 44.6759C105.532 44.887 107.198 44.2976 107.948 42.3468C108.395 41.1853 108.419 39.9874 108.367 38.7714C108.323 37.7389 108.156 36.7037 108.408 35.6712C108.643 34.7087 109.249 34.1583 110.209 34.1946C110.689 34.2128 110.793 34.0328 110.743 33.6277C110.734 33.5567 110.746 33.484 110.746 33.4113C110.743 23.4321 110.741 13.4529 110.739 3.47277C110.739 2.90846 110.739 2.90673 110.166 2.90673C92.3641 2.90673 74.5618 2.90673 56.7595 2.90587V2.9076ZM129.322 41.2467C129.116 41.1351 129.112 40.994 129.088 40.872C128.79 39.3894 128.494 37.9068 128.201 36.4224C127.811 34.4448 127.428 32.4654 127.036 30.4885C126.613 28.3559 126.182 26.2242 125.756 24.0925C125.319 21.9036 124.876 19.7156 124.452 17.5251C124.231 16.3817 123.936 15.2453 124.013 14.063C124.061 13.3386 124.411 12.924 125.106 12.7518C126.049 12.5181 126.991 12.5709 127.943 12.7008C128.794 12.8167 129.639 13.0712 130.513 12.7864C131.36 12.5103 131.837 11.9443 131.965 11.0814C132.11 10.1034 131.756 9.2474 131.071 8.85186C130.598 8.57837 130.078 8.56798 129.556 8.59135C127.94 8.66145 126.339 8.92543 124.721 8.97044C121.771 9.05179 118.83 8.88822 115.891 8.65626C115.215 8.6026 114.535 8.53596 113.857 8.61039C113.217 8.68049 112.665 8.96524 112.252 9.46031C111.701 10.1224 111.712 10.8711 112.05 11.6128C112.412 12.4091 113.055 12.8652 113.939 12.9189C114.622 12.9604 115.287 12.7882 115.95 12.6549C116.897 12.4645 118.089 12.6886 118.536 13.9687C118.774 14.6499 118.989 15.3353 119.152 16.0347C119.59 17.9128 120.002 19.7979 120.43 21.6786C120.991 24.1487 121.559 26.6172 122.122 29.0873C122.731 31.7548 123.339 34.4214 123.946 37.0897C124.386 39.0267 124.812 40.9672 125.263 42.9016C125.568 44.2033 125.862 45.5041 126.378 46.7531C127.229 48.8086 129.351 49.0016 130.878 48.2997C132.11 47.7337 132.554 46.5609 132.854 45.3535C133.199 43.9713 133.474 42.5727 133.78 41.181C134.279 38.9185 134.785 36.657 135.278 34.3928C135.939 31.3532 136.588 28.3109 137.25 25.2713C137.921 22.1901 138.6 19.1115 139.278 16.0321C139.303 15.917 139.268 15.7317 139.439 15.7326C139.571 15.7326 139.57 15.9057 139.593 16.0113C139.837 17.107 140.074 18.2045 140.314 19.3019C140.811 21.5808 141.306 23.8605 141.803 26.1385C142.233 28.1075 142.667 30.0766 143.097 32.0456C143.469 33.7472 143.837 35.4505 144.211 37.152C144.532 38.6139 144.854 40.0757 145.183 41.5358C145.515 43.0089 145.758 44.5045 146.224 45.9455C146.723 47.4896 147.614 48.5948 149.401 48.6485C150.531 48.6823 151.519 48.4217 152.177 47.4048C152.565 46.8041 152.807 46.1412 152.995 45.4635C153.544 43.4789 153.947 41.4596 154.4 39.4517C155.074 36.4605 155.763 33.4719 156.447 30.4834C157.009 28.0271 157.577 25.5716 158.135 23.1153C158.623 20.968 159.087 18.8155 159.591 16.6717C159.808 15.7499 160.007 14.8186 160.453 13.9644C161.032 12.8531 161.914 12.4394 163.139 12.6964C163.745 12.8237 164.358 12.9595 164.983 12.918C165.935 12.8557 166.575 12.3234 166.906 11.4683C167.185 10.749 167.161 10.0151 166.598 9.40405C165.998 8.75233 165.226 8.53249 164.36 8.58615C163.02 8.66838 161.678 8.73156 160.34 8.83282C157.004 9.08555 153.675 9.05093 150.35 8.65972C149.649 8.5775 148.929 8.47883 148.239 8.67963C147.28 8.96005 146.87 9.70525 146.922 10.936C146.959 11.843 147.55 12.5519 148.4 12.8003C149.307 13.0651 150.179 12.8055 151.058 12.6869C151.984 12.5623 152.899 12.5432 153.814 12.7458C154.283 12.8496 154.626 13.1067 154.782 13.5766C154.98 14.1704 154.905 14.7754 154.827 15.3743C154.63 16.8898 154.277 18.3767 153.986 19.8758C153.31 23.3681 152.603 26.8543 151.908 30.3423C151.219 33.8017 150.531 37.262 149.836 40.7205C149.8 40.8962 149.804 41.1109 149.572 41.2623C149.456 40.7499 149.352 40.2895 149.247 39.829C148.872 38.1725 148.494 36.5159 148.121 34.8585C147.691 32.9483 147.267 31.0373 146.837 29.1271C146.515 27.6947 146.186 26.264 145.863 24.8316C145.428 22.9085 144.996 20.9845 144.562 19.0605C144.13 17.1356 143.703 15.2098 143.263 13.2876C143.022 12.2368 142.755 11.1974 142.308 10.2029C141.42 8.22784 138.642 8.26678 137.527 9.16431C136.617 9.89739 136.253 10.9308 135.985 11.9954C135.583 13.5862 135.238 15.1917 134.874 16.792C134.2 19.7546 133.528 22.7172 132.858 25.6807C132.321 28.0539 131.789 30.428 131.254 32.8012C130.804 34.7953 130.354 36.7894 129.9 38.7818C129.716 39.5919 129.522 40.3994 129.324 41.2485L129.322 41.2467ZM250.336 26.1446C250.329 26.1446 250.322 26.1446 250.314 26.1446C250.314 21.2848 250.316 16.4259 250.311 11.5661C250.311 11.1489 250.29 10.7291 250.244 10.3146C250.147 9.44906 249.706 9.0241 248.84 8.95572C248.509 8.92976 248.176 8.93322 247.844 8.94188C245.838 8.99727 243.833 9.15046 241.825 8.97476C241.294 8.92803 240.758 8.89947 240.224 8.96265C239.197 9.08295 238.54 9.83161 238.575 10.8391C238.608 11.7928 239.203 12.3381 240.288 12.4004C240.547 12.4151 240.808 12.4117 241.068 12.4151C241.775 12.4229 242.49 12.3727 243.19 12.4489C244.98 12.6445 245.558 13.0296 245.777 14.7901C246.098 17.3909 245.873 20.003 245.928 22.609C245.93 22.6895 245.959 22.802 245.868 22.841C245.744 22.8938 245.695 22.7735 245.639 22.6956C245.199 22.0845 244.69 21.5332 244.134 21.0286C242.602 19.6369 240.797 18.8605 238.741 18.6078C236.373 18.317 234.065 18.5013 231.861 19.4387C228.612 20.8209 226.571 23.3482 225.303 26.5496C224.456 28.6892 224.128 30.936 224.07 33.2279C223.99 36.3826 224.392 39.4344 225.958 42.2481C227.109 44.3149 228.698 45.9429 230.795 47.0517C232.994 48.2149 235.37 48.6044 237.831 48.5386C239.416 48.4962 240.952 48.1846 242.418 47.5571C243.486 47.0993 244.471 46.509 245.343 45.7378C245.438 45.6539 245.531 45.5154 245.665 45.5569C245.823 45.6063 245.751 45.7785 245.764 45.8988C245.809 46.3134 245.826 46.7332 245.896 47.1434C245.999 47.7492 246.316 48.0279 246.92 48.053C247.381 48.0721 247.841 48.0513 248.302 47.9907C249.56 47.8245 250.817 47.616 252.096 47.7986C252.825 47.9024 253.558 47.9691 254.292 48.0366C254.811 48.0842 255.327 48.0764 255.837 47.9206C256.534 47.7077 256.937 47.2767 256.998 46.6353C257.082 45.7491 256.779 45.1276 256.1 44.791C255.662 44.5746 255.189 44.5149 254.712 44.5036C253.818 44.482 252.919 44.5227 252.028 44.4188C251.107 44.3115 250.766 44.006 250.53 43.1257C250.368 42.5216 250.344 41.8985 250.343 41.2814C250.333 36.2346 250.337 31.1879 250.337 26.1411L250.336 26.1446ZM178.416 48.6502C179.705 48.6295 181.267 48.4927 182.798 48.0781C184.724 47.558 186.463 46.6881 187.963 45.3717C190.42 43.2166 191.79 40.4548 192.32 37.2793C192.84 34.1739 192.762 31.0857 191.847 28.0383C191.207 25.9083 190.132 24.0509 188.562 22.4835C186.091 20.016 183.006 18.9358 179.598 18.6926C177.235 18.5238 174.895 18.7194 172.636 19.5088C169.669 20.5448 167.386 22.4212 165.79 25.1146C164.663 27.017 164.084 29.0968 163.859 31.29C163.539 34.4179 163.763 37.4792 164.954 40.4202C166.008 43.021 167.717 45.0948 170.106 46.5869C172.558 48.1197 175.278 48.645 178.416 48.6502ZM201.569 33.504C201.569 36.1108 201.576 38.2452 201.566 40.3795C201.561 41.2865 201.573 42.1945 201.355 43.0885C201.212 43.6745 200.882 44.0743 200.309 44.2457C199.623 44.4508 198.92 44.4993 198.21 44.379C197.738 44.2994 197.265 44.2474 196.787 44.2942C195.283 44.4422 194.455 45.84 195.104 47.1365C195.25 47.4299 195.466 47.6385 195.791 47.7518C196.744 48.0842 197.713 47.918 198.669 47.8349C201.771 47.5649 204.873 47.5987 207.977 47.764C209.188 47.8289 210.396 47.9951 211.61 47.8955C212.554 47.8185 213.238 47.1642 213.3 46.3307C213.377 45.3155 212.863 44.649 211.846 44.3928C211.187 44.2267 210.527 44.2864 209.863 44.3106C209.272 44.3322 208.689 44.469 208.093 44.4318C207.052 44.3669 206.554 43.935 206.34 42.9206C206.232 42.4091 206.189 41.8933 206.187 41.374C206.18 39.1678 206.172 36.9608 206.177 34.7546C206.182 32.1858 206.303 29.6256 206.906 27.1131C207.142 26.1299 207.481 25.1847 208.071 24.3478C209.224 22.7137 210.862 22.159 212.785 22.2455C214.271 22.3121 215.416 23.0037 216.302 24.1652C216.592 24.5443 216.725 24.9865 216.762 25.4513C216.823 26.2398 216.472 26.6033 215.377 26.927C213.482 27.4878 212.904 29.6412 214.262 31.0849C214.998 31.8673 215.946 32.0205 216.958 31.9876C218.777 31.9287 220.118 31.0745 220.753 29.398C221.747 26.7729 221.432 24.2249 219.808 21.9209C218.358 19.8654 216.269 18.8882 213.79 18.7246C212.149 18.6165 210.564 18.8623 209.099 19.6594C207.746 20.3959 206.714 21.4588 205.951 22.7899C205.891 22.8938 205.861 23.0868 205.704 23.0444C205.543 23.0002 205.627 22.8185 205.631 22.7034C205.656 22.0118 205.694 21.3229 205.529 20.6374C205.367 19.9632 205.01 19.6049 204.324 19.5244C204.024 19.4889 203.718 19.4863 203.415 19.5001C201.525 19.5867 199.636 19.7009 197.744 19.5183C197.386 19.4837 197.019 19.4794 196.662 19.5183C196.054 19.585 195.523 19.8134 195.182 20.3682C194.489 21.4986 195.025 22.6583 196.333 22.8245C196.662 22.8661 196.995 22.8825 197.326 22.8886C198.062 22.9016 198.799 22.8739 199.534 22.9544C200.483 23.0582 201.042 23.5161 201.27 24.4361C201.402 24.9675 201.488 25.5102 201.51 26.0589C201.619 28.697 201.54 31.3359 201.566 33.5022L201.569 33.504Z" fill="#FB020D"/>
<path d="M15.2737 28.3248C15.2737 24.3158 15.2754 20.3068 15.2711 16.2978C15.2711 15.5916 15.233 14.8879 14.9893 14.212C14.6052 13.1474 13.8127 12.6515 12.7176 12.5892C11.5124 12.5208 10.3272 12.7242 9.14019 12.8817C7.99135 13.0332 6.94135 12.2923 6.80349 11.2C6.62141 9.7581 7.26736 8.79912 8.53759 8.63727C9.08556 8.56717 9.63267 8.6191 10.1806 8.66584C13.087 8.91424 15.9908 9.22841 18.9153 9.0406C21.0483 8.90385 23.1786 8.74287 25.3115 8.60698C26.0529 8.55938 26.7803 8.65372 27.4774 8.9376C28.3202 9.28034 28.7902 9.9338 28.7633 10.7491C28.7321 11.6934 28.1199 12.5104 27.278 12.7778C26.4491 13.0401 25.6445 12.7874 24.8364 12.6861C23.7821 12.5528 22.7399 12.474 21.7185 12.8704C21.017 13.1431 20.6624 13.6892 20.5081 14.3859C20.3988 14.8784 20.3347 15.3769 20.3347 15.885C20.3416 24.0761 20.3425 32.2672 20.3512 40.4583C20.3512 41.1204 20.4595 41.7713 20.6078 42.4221C20.8254 43.3803 21.5009 43.7567 22.3644 43.9039C22.8899 43.9939 23.4248 44.0346 23.9615 44.0268C26.6477 43.9861 29.3364 44.1125 32.0208 43.9203C32.6598 43.8745 33.2763 43.729 33.8737 43.5075C34.9679 43.1024 35.5297 42.256 35.7604 41.1602C36.1245 39.4284 35.9572 37.6913 35.8159 35.9516C35.7474 35.1078 35.5913 34.2656 35.7482 33.4105C36.0092 31.9876 37.706 31.0988 38.861 31.812C39.5459 32.2352 39.8225 32.9172 39.8346 33.6875C39.852 34.7971 39.7549 35.9049 39.6612 37.011C39.4618 39.3764 39.5511 41.7341 39.7956 44.0908C39.8416 44.534 39.8641 44.9849 39.8416 45.4289C39.7566 47.1002 38.7092 48.0799 37.0306 48.041C36.2806 48.0237 35.5289 47.9657 34.7849 47.8705C33.5182 47.7086 32.2471 47.7199 30.9769 47.719C25.5725 47.7164 20.1691 47.7268 14.7647 47.745C13.146 47.7502 11.5341 47.9138 9.92053 48.0219C9.36909 48.0592 8.82458 48.0574 8.28268 47.9397C7.57516 47.7865 7.06534 47.4022 6.89019 46.6804C6.57198 45.3692 6.92054 44.2509 8.12054 43.8078C8.81418 43.5516 9.5503 43.7022 10.2648 43.813C11.1804 43.9549 12.0925 44.0666 13.022 43.929C14.1847 43.7567 14.9399 43.0167 15.1436 41.8544C15.2442 41.2823 15.2746 40.7102 15.2746 40.1338C15.2746 36.1966 15.2746 32.2603 15.2746 28.3231L15.2737 28.3248Z" fill="#FB020D"/>
<path d="M56.3659 34.1402C53.3468 34.1402 50.3277 34.1402 47.3078 34.1402C46.6852 34.1402 46.6826 34.1436 46.7052 34.7729C46.7849 37.0526 47.2141 39.2423 48.4922 41.181C50.3468 43.9948 53.0112 45.1 56.3277 44.8404C59.3997 44.5998 61.4979 42.9847 62.8566 40.3147C63.2338 39.5729 63.5026 38.7775 63.8598 38.0254C64.0965 37.5278 64.4312 37.0838 64.9427 36.8241C65.5895 36.4969 66.2173 36.6043 66.7826 37.005C67.458 37.4845 67.6765 38.1864 67.5942 38.9827C67.4927 39.9564 67.1277 40.8522 66.689 41.7133C65.6528 43.7464 64.295 45.5137 62.3554 46.78C61.2829 47.4802 60.1132 47.9467 58.8647 48.2323C56.6962 48.7282 54.5052 48.775 52.3297 48.3898C49.5664 47.8999 47.2584 46.5636 45.4445 44.3955C43.9783 42.6429 43.0384 40.6271 42.5667 38.4201C41.9243 35.4177 41.8904 32.3893 42.467 29.36C42.8719 27.2361 43.6497 25.2723 44.9243 23.5187C46.1702 21.8042 47.7517 20.4929 49.706 19.6439C50.9468 19.1047 52.2526 18.7819 53.5922 18.6797C55.543 18.5309 57.493 18.5966 59.3841 19.1713C63.2789 20.3536 65.893 22.8601 67.1598 26.7393C67.7034 28.4036 67.8664 30.1156 67.8291 31.8553C67.8205 32.2491 67.7251 32.6273 67.6063 32.9977C67.3956 33.6546 66.8693 33.9316 66.2416 34.0381C65.7144 34.1272 65.1786 34.1411 64.6436 34.1402C61.8846 34.1385 59.1248 34.1393 56.3659 34.1402ZM54.9612 30.4289C57.2442 30.4289 59.5271 30.4289 61.8092 30.4289C63.0326 30.4289 63.0647 30.4272 62.9763 29.2025C62.8315 27.2092 62.0424 25.5137 60.5268 24.1722C59.2315 23.0254 57.6942 22.4741 55.9982 22.3365C54.0448 22.1781 52.1945 22.5208 50.5644 23.6667C48.3855 25.1978 47.4144 27.4187 47.0364 29.965C46.9835 30.3225 47.0867 30.4393 47.463 30.4367C49.9627 30.4211 52.4615 30.428 54.9612 30.4289Z" fill="#FB020D"/>
<path d="M75.8953 32.8385C75.8953 29.695 75.8884 26.5506 75.9049 23.4071C75.9066 23.0454 75.7921 22.9631 75.4618 22.9701C74.1907 22.996 72.9196 23.0168 71.6511 23.1033C71.2618 23.1302 70.8716 23.1561 70.4823 23.1033C69.6673 22.9934 69.219 22.6334 69.0708 21.973C68.8947 21.188 69.2 20.4229 69.8537 20.0187C70.204 19.8023 70.5838 19.6863 70.9999 19.6794C72.4462 19.656 73.8855 19.8335 75.33 19.8369C75.8918 19.8378 75.871 19.8378 75.8572 19.2934C75.8034 17.2006 75.9994 15.152 76.9731 13.2444C78.0465 11.1412 79.7892 9.88107 82.0401 9.32628C84.1574 8.80438 86.3051 8.71956 88.4268 9.30984C90.2095 9.80577 91.6808 10.7414 92.3632 12.5693C92.6936 13.4539 92.7343 14.3722 92.436 15.2861C92.0502 16.4701 90.7791 17.134 89.3771 16.8726C89.0962 16.8207 88.8135 16.7609 88.5482 16.6337C87.6343 16.1966 87.2398 15.5025 87.369 14.502C87.4184 14.1168 87.486 13.7334 87.5571 13.3509C87.6534 12.8333 87.4583 12.5252 86.9407 12.4031C85.7788 12.1296 84.6161 12.14 83.4768 12.4854C81.6517 13.0393 80.7395 14.3973 80.3285 16.1689C80.0875 17.2058 80.1343 18.2591 80.1343 19.3116C80.1343 19.7296 80.3051 19.8568 80.7144 19.8343C82.0124 19.7642 83.3112 19.721 84.61 19.6751C85.236 19.6526 85.8491 19.695 86.4092 20.0308C87.0673 20.4255 87.2528 21.0244 87.1635 21.735C87.0707 22.475 86.717 22.8272 85.9696 23.0324C85.2647 23.2254 84.5597 23.0981 83.8574 23.0514C82.804 22.9813 81.7496 22.9943 80.6953 22.964C80.3771 22.9553 80.3095 23.073 80.3095 23.363C80.3199 29.4051 80.3225 35.448 80.3242 41.4901C80.3242 42.0552 80.4092 42.6118 80.5141 43.1631C80.6589 43.9221 81.206 44.3817 82.0002 44.4302C82.8256 44.4804 83.645 44.3679 84.4652 44.3133C85.0939 44.2718 85.7077 44.3315 86.2904 44.5764C87.0378 44.8898 87.1869 45.5441 87.1826 46.2521C87.1791 46.9289 86.8739 47.4343 86.2349 47.7191C85.7407 47.9398 85.2196 47.9311 84.702 47.9017C82.5387 47.7788 80.378 47.6126 78.2103 47.5884C76.3306 47.5676 74.4577 47.6931 72.5858 47.8446C71.7838 47.9095 70.9809 47.9857 70.1754 47.7823C69.0291 47.4932 68.9104 46.42 69.1202 45.6237C69.3959 44.5773 70.5317 44.219 71.7083 44.3211C72.3846 44.3791 73.0583 44.4734 73.739 44.4328C74.1595 44.4077 74.5696 44.3289 74.9485 44.135C75.6473 43.7776 75.7098 43.0869 75.7887 42.4361C75.9187 41.3611 75.9031 40.2775 75.9014 39.1956C75.8988 37.076 75.9014 34.9555 75.9014 32.8359C75.8979 32.8359 75.8953 32.8359 75.8918 32.8359L75.8953 32.8385Z" fill="#FB020D"/>
<path d="M245.939 33.9669C245.916 35.4781 246.001 36.9936 245.747 38.4952C245.379 40.6676 244.636 42.6176 242.594 43.7938C241.615 44.3573 240.541 44.6282 239.429 44.7355C237.687 44.9034 235.964 44.8125 234.319 44.1504C231.942 43.1932 230.45 41.3955 229.625 39.0293C228.797 36.6517 228.649 34.1989 228.884 31.701C229.064 29.7788 229.527 27.9534 230.559 26.3133C232.261 23.6077 234.732 22.3372 237.938 22.4056C240.499 22.4609 242.594 23.3827 244.119 25.4729C245.011 26.6967 245.487 28.0876 245.745 29.5685C246 31.0286 245.913 32.499 245.939 33.9669Z" fill="#FB020D"/>
<path d="M168.378 33.6104C168.338 31.6258 168.609 29.6689 169.427 27.8167C170.501 25.3838 172.261 23.6606 174.828 22.8713C176.883 22.2386 178.982 22.236 181.073 22.7397C183.105 23.2296 184.726 24.3426 185.938 26.0364C187.017 27.545 187.581 29.2517 187.836 31.0745C188.074 32.7847 188.078 34.4941 187.825 36.2C187.417 38.9462 186.33 41.3315 184.058 43.0582C182.934 43.9125 181.652 44.398 180.264 44.636C178.752 44.8948 177.239 44.8827 175.742 44.5884C172.806 44.012 170.695 42.3537 169.467 39.6204C168.612 37.7189 168.338 35.7032 168.378 33.6104Z" fill="#FB020D"/>
</svg>
