<svg width="18" height="18" viewBox="0 0 18 18" fill="none" xmlns="http://www.w3.org/2000/svg">
<path d="M8.03516 14.7609C8.16797 14.9203 8.32292 15 8.5 15C8.67708 15 8.83203 14.9203 8.96484 14.7609L16.8008 5.35507C16.9336 5.19565 17 5.00302 17 4.77717C17 4.55133 16.9336 4.36534 16.8008 4.2192C16.668 4.07307 16.513 4 16.3359 4C16.1589 4 16.0039 4.07971 15.8711 4.23913L8.5 13.087L1.12891 4.23913C0.996094 4.07971 0.841146 4 0.664063 4C0.48698 4 0.332032 4.07307 0.199219 4.2192C0.0664067 4.36534 4.76837e-07 4.55133 4.76837e-07 4.77717C4.76837e-07 5.00302 0.0664067 5.19565 0.199219 5.35507L8.03516 14.7609Z" fill="#242424"/>
</svg>
