<svg width="18" height="18" viewBox="0 0 18 18" fill="none" xmlns="http://www.w3.org/2000/svg">
<path d="M16.9558 1.65927C16.8634 1.58507 16.7541 1.53471 16.6375 1.51264C16.5208 1.49057 16.4006 1.49748 16.2873 1.53275L9.00669 3.53039L1.71272 1.53275C1.59943 1.49748 1.47915 1.49057 1.36254 1.51264C1.24593 1.53471 1.13658 1.58507 1.04417 1.65927C0.953437 1.72956 0.879848 1.81938 0.828906 1.92201C0.777964 2.02464 0.750989 2.13742 0.75 2.2519V15.8958C0.750313 16.0703 0.812028 16.2391 0.924408 16.3729C1.03679 16.5068 1.19272 16.5971 1.36507 16.6283L8.87297 18H9.1404L16.6349 16.6283C16.8073 16.5971 16.9632 16.5068 17.0756 16.3729C17.188 16.2391 17.2497 16.0703 17.25 15.8958V2.2519C17.249 2.13742 17.222 2.02464 17.1711 1.92201C17.1202 1.81938 17.0466 1.72956 16.9558 1.65927ZM2.26094 3.23075L8.27796 4.86881V16.3686L2.26094 15.2699V3.23075ZM15.7524 15.2699L9.73541 16.3686V4.86881L15.7524 3.23075V15.2699Z" fill="white"/>
</svg>
