<svg width="31" height="29" viewBox="0 0 31 29" fill="none" xmlns="http://www.w3.org/2000/svg">
<path d="M28.2817 18.7821L27.9325 19.7908L27.9325 19.7908L28.2817 18.7821ZM28.2817 10.7107L28.6309 11.7194L28.2817 10.7107ZM2.61229 18.7821L2.96151 19.7908L2.96151 19.7908L2.61229 18.7821ZM2.61229 10.7107L2.26307 11.7194H2.26307L2.61229 10.7107ZM20.4714 11.2316C20.8883 10.8147 20.8883 10.1389 20.4714 9.72201C20.0546 9.30516 19.3787 9.30516 18.9619 9.72201L20.4714 11.2316ZM10.4226 18.2613C10.0057 18.6781 10.0057 19.354 10.4226 19.7708C10.8394 20.1877 11.5153 20.1877 11.9321 19.7708L10.4226 18.2613ZM6.9077 26.4879C4.35314 26.4879 2.28225 24.4171 2.28225 21.8625H0.147433C0.147433 25.5961 3.17411 28.6228 6.9077 28.6228V26.4879ZM28.6117 21.8625C28.6117 24.4171 26.5408 26.4879 23.9863 26.4879V28.6228C27.7199 28.6228 30.7465 25.5961 30.7465 21.8625H28.6117ZM23.9863 3.00491C26.5408 3.00491 28.6117 5.07579 28.6117 7.63036H30.7465C30.7465 3.89677 27.7199 0.87009 23.9863 0.87009V3.00491ZM6.9077 0.87009C3.17411 0.87009 0.147433 3.89677 0.147433 7.63036H2.28225C2.28225 5.07579 4.35314 3.00491 6.9077 3.00491V0.87009ZM28.6309 17.7735C27.3757 17.3389 26.4769 16.1463 26.4769 14.7464H24.3421C24.3421 17.0839 25.8441 19.0678 27.9325 19.7908L28.6309 17.7735ZM26.4769 14.7464C26.4769 13.3466 27.3757 12.154 28.6309 11.7194L27.9325 9.70205C25.8441 10.4251 24.3421 12.409 24.3421 14.7464H26.4769ZM4.41708 14.7464C4.41708 16.1463 3.51825 17.3389 2.26307 17.7735L2.96151 19.7908C5.04986 19.0678 6.5519 17.0839 6.5519 14.7464H4.41708ZM2.26307 11.7194C3.51825 12.154 4.41708 13.3466 4.41708 14.7464H6.5519C6.5519 12.409 5.04986 10.4251 2.96151 9.70205L2.26307 11.7194ZM30.7465 9.05357V7.63036H28.6117V9.05357H30.7465ZM28.6117 20.4393V21.8625H30.7465V20.4393H28.6117ZM0.147433 20.4393V21.8625H2.28225V20.4393H0.147433ZM2.28225 9.05357V7.63036H0.147433V9.05357H2.28225ZM23.9863 26.4879H6.9077V28.6228H23.9863V26.4879ZM23.9863 0.87009H6.9077V3.00491H23.9863V0.87009ZM2.26307 17.7735C1.29717 18.1079 0.147433 19.0126 0.147433 20.4393H2.28225C2.28225 20.3598 2.31187 20.2555 2.42702 20.128C2.54783 19.9943 2.73732 19.8684 2.96151 19.7908L2.26307 17.7735ZM28.6309 11.7194C29.5968 11.385 30.7465 10.4803 30.7465 9.05357H28.6117C28.6117 9.13308 28.5821 9.2374 28.467 9.36485C28.3461 9.49855 28.1567 9.62444 27.9325 9.70205L28.6309 11.7194ZM2.96151 9.70205C2.73732 9.62444 2.54783 9.49855 2.42702 9.36485C2.31187 9.2374 2.28225 9.13308 2.28225 9.05357H0.147433C0.147433 10.4803 1.29717 11.385 2.26307 11.7194L2.96151 9.70205ZM27.9325 19.7908C28.1567 19.8684 28.3461 19.9943 28.467 20.128C28.5821 20.2555 28.6117 20.3598 28.6117 20.4393H30.7465C30.7465 19.0126 29.5968 18.1079 28.6309 17.7735L27.9325 19.7908ZM11.5331 10.4768C11.5331 10.6733 11.3738 10.8326 11.1773 10.8326V12.9674C12.5529 12.9674 13.668 11.8523 13.668 10.4768H11.5331ZM11.1773 10.8326C10.9808 10.8326 10.8215 10.6733 10.8215 10.4768H8.68672C8.68672 11.8523 9.80181 12.9674 11.1773 12.9674V10.8326ZM10.8215 10.4768C10.8215 10.2803 10.9808 10.121 11.1773 10.121V7.98616C9.80181 7.98616 8.68672 9.10125 8.68672 10.4768H10.8215ZM11.1773 10.121C11.3738 10.121 11.5331 10.2803 11.5331 10.4768H13.668C13.668 9.10125 12.5529 7.98616 11.1773 7.98616V10.121ZM20.0724 19.0161C20.0724 19.2126 19.9131 19.3719 19.7166 19.3719V21.5067C21.0922 21.5067 22.2073 20.3916 22.2073 19.0161H20.0724ZM19.7166 19.3719C19.5201 19.3719 19.3608 19.2126 19.3608 19.0161H17.226C17.226 20.3916 18.3411 21.5067 19.7166 21.5067V19.3719ZM19.3608 19.0161C19.3608 18.8196 19.5201 18.6603 19.7166 18.6603V16.5254C18.3411 16.5254 17.226 17.6405 17.226 19.0161H19.3608ZM19.7166 18.6603C19.9131 18.6603 20.0724 18.8196 20.0724 19.0161H22.2073C22.2073 17.6405 21.0922 16.5254 19.7166 16.5254V18.6603ZM18.9619 9.72201L10.4226 18.2613L11.9321 19.7708L20.4714 11.2316L18.9619 9.72201Z" fill="#141718"/>
</svg>
