<svg width="16" height="16" viewBox="0 0 16 16" fill="none" xmlns="http://www.w3.org/2000/svg">
<path d="M2.92024 2.81109C2.92024 2.81109 3.29407 2.43726 4.04173 1.68959C4.7894 0.941931 6.21993 0.568099 8.33332 0.568099C10.4467 0.568099 12.2511 1.31576 13.7464 2.81109C15.2417 4.30642 15.9894 6.11078 15.9894 8.22417C15.9894 10.3376 15.2417 12.1419 13.7464 13.6373C12.2511 15.1326 10.4467 15.8802 8.33332 15.8802C6.21993 15.8802 4.41556 15.1326 2.92024 13.6373C1.42491 12.1419 0.677246 10.3376 0.677246 8.22417C0.677246 6.11078 1.42491 4.30642 2.92024 2.81109ZM8.33332 14.8634C10.1676 14.8634 11.7327 14.2155 13.0286 12.9195C14.3246 11.6236 14.9726 10.0584 14.9726 8.22417C14.9726 6.38991 14.3246 4.8248 13.0286 3.52885C11.7327 2.2329 10.1676 1.58492 8.33332 1.58492C6.49905 1.58492 4.93394 2.2329 3.63799 3.52885C2.34204 4.8248 1.69407 6.38991 1.69407 8.22417C1.69407 9.42044 1.99313 10.527 2.59126 11.5438C3.1894 12.5606 3.99687 13.3681 5.01369 13.9662C6.03052 14.5644 7.13706 14.8634 8.33332 14.8634ZM7.67538 10.0933C7.67538 10.0933 7.70528 10.0609 7.7651 9.99614C7.82491 9.93134 7.94952 9.89894 8.13893 9.89894C8.32834 9.89894 8.48784 9.96374 8.61743 10.0933C8.74703 10.2229 8.81183 10.3774 8.81183 10.5569C8.81183 10.7363 8.74703 10.8908 8.61743 11.0204C8.48784 11.15 8.32834 11.2148 8.13893 11.2148C7.94952 11.2148 7.795 11.15 7.67538 11.0204C7.55575 10.8908 7.49594 10.7363 7.49594 10.5569C7.49594 10.3774 7.55575 10.2229 7.67538 10.0933ZM8.2436 4.87464C8.80186 4.87464 9.25045 5.00922 9.5894 5.27838C9.92834 5.54754 10.0978 5.88149 10.0978 6.28025C10.0978 6.8385 9.76884 7.36685 9.11089 7.8653C8.91151 8.04473 8.78192 8.20424 8.72211 8.3438C8.66229 8.48336 8.63239 8.68274 8.63239 8.94193C8.63239 9.18118 8.46292 9.30081 8.12398 9.30081C7.94454 9.30081 7.81993 9.26093 7.75014 9.18118C7.68036 9.10143 7.64547 8.9519 7.64547 8.73259C7.64547 8.17433 7.84485 7.7357 8.2436 7.4167C8.26354 7.39676 8.33831 7.33695 8.4679 7.23726C8.5975 7.13757 8.68721 7.05782 8.73706 6.99801C8.7869 6.93819 8.84173 6.85844 8.90155 6.75875C8.96136 6.65907 8.99127 6.54941 8.99127 6.42978C8.99127 6.05097 8.73207 5.86156 8.2137 5.86156C7.89469 5.86156 7.65544 5.97121 7.49594 6.19053C7.33644 6.40984 7.19687 6.5195 7.07725 6.5195C6.93768 6.5195 6.81307 6.47464 6.70341 6.38492C6.59376 6.2952 6.53893 6.17059 6.53893 6.01109C6.53893 5.85159 6.59874 5.6871 6.71837 5.51763C6.83799 5.34816 7.03239 5.19863 7.30155 5.06903C7.5707 4.93944 7.88472 4.87464 8.2436 4.87464Z" fill="#19110B"/>
</svg>
