<svg width="29" height="29" viewBox="0 0 29 29" fill="none" xmlns="http://www.w3.org/2000/svg">
<path d="M23.5301 3.33105C23.784 3.38214 24.0379 3.40768 24.2791 3.49707C25.9421 4.05895 26.9831 5.1955 27.2878 6.93224C27.6052 8.69451 26.7165 10.4568 25.155 11.3507C23.5936 12.2318 21.6639 12.0531 20.2929 10.8782C19.9501 10.5845 19.6581 10.2397 19.4423 9.83106C19.3916 9.74167 19.3535 9.7289 19.2646 9.76721C17.5381 10.5845 15.8116 11.389 14.0851 12.1935C12.9679 12.7171 11.8635 13.2279 10.7463 13.7515C10.6067 13.8153 10.6067 13.8153 10.6702 13.9558C11.0002 14.6582 11.1018 15.3988 11.0383 16.165C11.0002 16.6631 10.8606 17.1484 10.6448 17.5953C10.594 17.6975 10.6448 17.7102 10.7209 17.7485C11.5461 18.1317 12.3713 18.5148 13.1964 18.8979C14.3644 19.4342 15.5323 19.9706 16.6875 20.5197C17.4746 20.89 18.2617 21.2476 19.0488 21.6179C19.1377 21.6562 19.163 21.6179 19.2011 21.5541C19.6074 20.9028 20.1406 20.3664 20.8134 19.9961C21.3466 19.7024 21.9305 19.5364 22.5399 19.4981C23.6697 19.4214 24.6726 19.7279 25.5613 20.4303C26.4499 21.1326 26.9958 22.0649 27.1608 23.1886C27.4909 25.4745 25.866 27.6454 23.6063 28.003C22.0702 28.2456 20.7753 27.722 19.7343 26.5727C19.1884 25.9725 18.8584 25.2446 18.7314 24.4401C18.6806 24.0953 18.6426 23.7505 18.7314 23.4057C18.7568 23.2908 18.7314 23.2269 18.6172 23.1759C17.0557 22.4607 15.4942 21.7456 13.9327 21.0177C12.5617 20.392 11.1906 19.7535 9.81959 19.115C9.70534 19.0639 9.61648 19.0639 9.51492 19.1405C8.84209 19.6513 8.08039 19.9706 7.24253 20.0344C6.08729 20.1238 5.059 19.7918 4.15767 19.0511C3.3198 18.3487 2.8247 17.4548 2.64697 16.3821C2.64697 16.3183 2.62158 16.2672 2.62158 16.2034C2.62158 15.9096 2.62158 15.6159 2.62158 15.335C2.62158 15.3222 2.62158 15.3094 2.63428 15.2839C2.77392 14.2112 3.23094 13.3173 4.04341 12.6022C5.02092 11.7338 6.17616 11.4401 7.44565 11.6061C8.23273 11.7083 8.93095 12.0275 9.5657 12.5128C9.62917 12.5639 9.67995 12.5639 9.75612 12.5383C11.508 11.6955 13.2599 10.8654 15.0245 10.0226C16.2559 9.43518 17.4746 8.84776 18.706 8.26033C18.8838 8.17094 18.8838 8.17094 18.8584 7.96662C18.8584 7.94108 18.8584 7.92831 18.8584 7.90277C18.8584 7.58351 18.8457 7.26426 18.9091 6.94501C19.2519 5.20827 20.2675 4.05895 21.9432 3.49707C22.1844 3.42045 22.4383 3.38214 22.6795 3.34382H23.5428L23.5301 3.33105ZM22.87 26.4706C24.368 26.4706 25.5486 25.2702 25.5486 23.7633C25.5486 22.2947 24.3172 21.056 22.8573 21.056C21.3973 21.056 20.1786 22.2947 20.1786 23.7761C20.1786 25.2446 21.41 26.4706 22.87 26.4578V26.4706ZM6.84899 13.0491C5.37638 13.0874 4.18306 14.2878 4.18306 15.7564C4.18306 17.2633 5.40177 18.4637 6.86168 18.4637C8.35968 18.4637 9.5657 17.2377 9.5657 15.7436C9.5657 14.2623 8.35968 13.0619 6.86168 13.0491H6.84899ZM23.0985 4.9784C21.7782 4.95286 20.4198 6.0511 20.4071 7.66013C20.4071 9.1287 21.5751 10.278 23.0731 10.2908C24.5584 10.3036 25.7771 9.16701 25.7898 7.6729C25.7898 6.10218 24.4695 4.95286 23.1112 4.96563L23.0985 4.9784Z" fill="black"/>
</svg>
