<svg width="12" height="16" viewBox="0 0 12 16" fill="none" xmlns="http://www.w3.org/2000/svg">
<path d="M10.5596 11.095C10.4001 11.095 10.2605 11.0351 10.1409 10.9155C10.0213 10.7959 9.96146 10.6563 9.96146 10.4968V2.96038C9.96146 2.62144 9.84681 2.33733 9.61753 2.10804C9.38825 1.87876 9.10413 1.76412 8.76519 1.76412H2.96332C2.62438 1.76412 2.34027 1.87876 2.11099 2.10804C1.8817 2.33733 1.76706 2.62144 1.76706 2.96038V13.4875C1.76706 13.8264 1.8817 14.1105 2.11099 14.3398C2.34027 14.5691 2.62438 14.6837 2.96332 14.6837H8.76519C9.10413 14.6837 9.38825 14.5691 9.61753 14.3398C9.84681 14.1105 9.96146 13.8264 9.96146 13.4875C9.96146 13.328 10.0213 13.1884 10.1409 13.0688C10.2605 12.9492 10.4001 12.8894 10.5596 12.8894C10.7191 12.8894 10.8587 12.9492 10.9783 13.0688C11.0979 13.1884 11.1577 13.328 11.1577 13.4875C11.1577 14.1454 10.9234 14.7087 10.4549 15.1772C9.98638 15.6457 9.42314 15.88 8.76519 15.88H2.96332C2.30538 15.88 1.74214 15.6457 1.2736 15.1772C0.805069 14.7087 0.570801 14.1454 0.570801 13.4875V2.96038C0.570801 2.30243 0.805069 1.73919 1.2736 1.27066C1.74214 0.802123 2.30538 0.567855 2.96332 0.567855H8.76519C9.42314 0.567855 9.98638 0.802123 10.4549 1.27066C10.9234 1.73919 11.1577 2.30243 11.1577 2.96038V10.4968C11.1577 10.6165 11.1328 10.7211 11.083 10.8108C11.0331 10.9006 10.9583 10.9703 10.8587 11.0202C10.759 11.07 10.6593 11.095 10.5596 11.095ZM5.44557 13.5772C5.44557 13.5772 5.41566 13.5473 5.35585 13.4875C5.29603 13.4277 5.26613 13.318 5.26613 13.1585C5.26613 12.999 5.32594 12.8594 5.44557 12.7398C5.56519 12.6202 5.70476 12.5604 5.86426 12.5604C6.02376 12.5604 6.16332 12.6202 6.28295 12.7398C6.40258 12.8594 6.46239 12.999 6.46239 13.1585C6.46239 13.318 6.40258 13.4576 6.28295 13.5772C6.16332 13.6968 6.02376 13.7566 5.86426 13.7566C5.70476 13.7566 5.56519 13.6968 5.44557 13.5772ZM6.88108 2.87066C6.88108 2.87066 6.91099 2.90057 6.9708 2.96038C7.03061 3.02019 7.06052 3.12985 7.06052 3.28935C7.06052 3.44885 7.00071 3.58842 6.88108 3.70804C6.76146 3.82767 6.62189 3.88748 6.46239 3.88748H5.26613C5.10663 3.88748 4.96706 3.82767 4.84744 3.70804C4.72781 3.58842 4.668 3.44885 4.668 3.28935C4.668 3.12985 4.72781 2.99028 4.84744 2.87066C4.96706 2.75103 5.10663 2.69122 5.26613 2.69122H6.46239C6.62189 2.69122 6.76146 2.75103 6.88108 2.87066Z" fill="#19110B"/>
</svg>
