<svg width="21" height="13" viewBox="0 0 21 13" fill="none" xmlns="http://www.w3.org/2000/svg">
<g clip-path="url(#clip0_81_781)">
<path d="M10.6489 0.58976C12.9085 0.580013 14.9421 1.28511 16.8123 2.49831C18.3518 3.49665 19.6568 4.74884 20.8213 6.15009C21.0632 6.44131 21.0599 6.78126 20.8069 7.05177C19.1376 8.83522 17.2875 10.3888 15.053 11.4489C13.792 12.0471 12.4694 12.4403 11.0732 12.5552C9.33034 12.6986 7.66102 12.3952 6.06317 11.6958C4.5598 11.0374 3.24537 10.1049 2.04555 9.00215C1.38341 8.39372 0.774253 7.73818 0.201656 7.04811C-0.0727302 6.7179 -0.0665688 6.36008 0.216854 6.05789C1.54237 4.64527 2.98577 3.37114 4.66454 2.37565C6.11493 1.51581 7.6602 0.909408 9.3439 0.68074C9.77642 0.621847 10.2131 0.596665 10.6489 0.58976ZM10.6062 1.89028C9.74849 1.87607 8.72242 2.07468 7.72181 2.41748C6.06605 2.98529 4.62141 3.90646 3.28891 5.01406C2.74507 5.46612 2.22669 5.94579 1.72721 6.44578C1.6389 6.53432 1.5855 6.60215 1.69846 6.72928C2.47027 7.60008 3.30206 8.40712 4.23653 9.10775C6.27636 10.6373 8.54415 11.4318 11.1311 11.2064C12.457 11.091 13.6926 10.6845 14.8649 10.0785C16.5482 9.20848 17.9776 8.01396 19.2937 6.67485C19.4091 6.55747 19.3906 6.48558 19.292 6.37389C18.4418 5.40723 17.5143 4.52383 16.4553 3.78177C14.7647 2.597 12.9126 1.88135 10.6062 1.89028Z" fill="black"/>
<path d="M10.4658 2.68859C12.5996 2.64473 14.4107 4.43792 14.4304 6.55605C14.4505 8.71357 12.6296 10.4852 10.5216 10.5076C8.32159 10.5307 6.52206 8.71154 6.51467 6.61129C6.50728 4.47204 8.31831 2.65448 10.4658 2.68859ZM13.0798 6.57676C13.0289 5.1483 11.9293 4.0143 10.4616 4.02527C8.97634 4.03623 7.8714 5.1747 7.87551 6.60032C7.87962 8.06006 9.03221 9.15385 10.4542 9.16238C11.9145 9.17091 13.0416 8.05519 13.0802 6.57676H13.0798Z" fill="black"/>
<path d="M9.14746 6.58651C9.14623 5.8603 9.7217 5.28396 10.4487 5.28314C11.2173 5.28233 11.796 5.83877 11.7977 6.58042C11.7993 7.33791 11.2349 7.90328 10.4763 7.90369C9.71965 7.90409 9.1487 7.33791 9.14746 6.5861V6.58651Z" fill="black"/>
</g>
<defs>
<clipPath id="clip0_81_781">
<rect width="21" height="12" fill="white" transform="translate(0 0.589966)"/>
</clipPath>
</defs>
</svg>
