<svg width="25" height="25" viewBox="0 0 25 25" fill="none" xmlns="http://www.w3.org/2000/svg">
<path d="M24.2266 6.47378L12.5469 0.633959C12.489 0.605027 12.4252 0.589966 12.3604 0.589966C12.2957 0.589966 12.2319 0.605027 12.174 0.633959L0.494351 6.47378C0.425011 6.50843 0.366696 6.56172 0.325951 6.62766C0.285206 6.6936 0.263642 6.7696 0.263678 6.84711V18.5267C0.263253 18.6046 0.284634 18.681 0.325401 18.7474C0.366167 18.8138 0.424692 18.8674 0.494351 18.9021L12.174 24.742C12.2319 24.7709 12.2957 24.786 12.3604 24.786C12.4252 24.786 12.489 24.7709 12.5469 24.742L24.2266 18.9021C24.2962 18.8674 24.3547 18.8138 24.3955 18.7474C24.4363 18.681 24.4576 18.6046 24.4572 18.5267V6.84711C24.4572 6.7696 24.4357 6.6936 24.395 6.62766C24.3542 6.56172 24.2959 6.50843 24.2266 6.47378ZM12.3604 12.2206L9.09972 10.59L19.5221 5.05345L23.1095 6.84711L12.3604 12.2206ZM5.7627 8.9215L16.1851 3.38493L18.6045 4.59461L8.18331 10.132L5.7627 8.9215ZM5.26924 9.60771L7.77202 10.8591V14.1828L6.81553 13.2263C6.73733 13.148 6.63124 13.1041 6.52062 13.1041H5.26924V9.60771ZM12.3604 1.47364L15.2687 2.92609L4.84627 8.46349L1.61351 6.84711L12.3604 1.47364ZM1.09794 7.52202L4.43498 9.19053V13.5212C4.43498 13.6318 4.47892 13.7379 4.55716 13.8162C4.63538 13.8944 4.74148 13.9384 4.85211 13.9384H6.34794L7.89424 15.4846C7.95257 15.5429 8.02689 15.5826 8.10779 15.5988C8.1887 15.6148 8.27255 15.6066 8.34875 15.575C8.42496 15.5434 8.49012 15.49 8.53593 15.4214C8.58182 15.3528 8.60625 15.2722 8.60625 15.1897V11.2762L11.9433 12.9447V23.6917L1.09794 18.269V7.52202ZM12.7775 23.6917V12.9447L23.6229 7.52202V18.269L12.7775 23.6917Z" fill="black"/>
</svg>
