<svg width="29" height="29" viewBox="0 0 29 29" fill="none" xmlns="http://www.w3.org/2000/svg">
<path d="M19.9281 6.1759C20.3965 6.24096 20.878 6.30602 21.3334 6.44915C22.9599 6.9306 24.2871 7.84143 25.289 9.20769C25.9266 10.0925 26.2909 11.0944 26.4731 12.1614C26.7594 13.8269 26.4601 15.4014 25.7314 16.9238C25.0027 18.4722 24.1309 19.9295 23.051 21.2437C22.1661 22.3107 21.1772 23.2866 20.1623 24.2365C18.9392 25.3815 17.638 26.4485 16.2847 27.4374C14.9835 28.3873 13.4481 28.3873 12.1469 27.4374C10.2472 26.0451 8.47757 24.5097 6.81204 22.8312C5.2376 21.2437 3.92339 19.4611 2.9475 17.4443C2.53111 16.5855 2.12774 15.7267 1.9716 14.7768C1.91955 14.5166 1.89353 14.2433 1.85449 13.9701C1.85449 13.5927 1.85449 13.2154 1.85449 12.851C1.88052 12.6298 1.90654 12.3956 1.94558 12.1744C2.12774 11.1074 2.49208 10.0925 3.12966 9.20769C4.13158 7.82842 5.47181 6.91758 7.09831 6.44915C7.55373 6.30602 8.02216 6.24096 8.49059 6.1759C8.97203 6.1759 9.45347 6.1759 9.93491 6.1759C9.96094 6.1759 9.98696 6.18892 10.013 6.20193C11.5874 6.37108 12.9407 7.02168 14.0597 8.14071C14.1898 8.27083 14.2549 8.27083 14.372 8.14071C15.1007 7.39903 15.9594 6.86554 16.9223 6.52723C17.4298 6.34506 17.9633 6.25398 18.4968 6.1759H19.9411H19.9281ZM9.03709 7.86746C8.78986 7.86746 8.37348 7.89348 7.94408 7.98456C4.79519 8.68721 3.20773 11.2896 3.61111 14.3084C3.7152 15.0761 4.01448 15.7657 4.33977 16.4553C5.1335 18.1469 6.16145 19.6953 7.44963 21.0616C9.21925 22.9483 11.158 24.6399 13.253 26.1623C13.8515 26.6047 14.5802 26.5917 15.1787 26.1623C15.3219 26.0582 15.478 25.9541 15.6211 25.837C16.9093 24.8871 18.1324 23.8591 19.2905 22.7531C20.0062 22.0765 20.7088 21.3869 21.3594 20.6452C22.5175 19.331 23.4283 17.8606 24.183 16.2862C24.7815 15.0631 25.0288 13.7879 24.8076 12.4477C24.6774 11.6279 24.4302 10.8342 23.9228 10.1576C22.5955 8.40095 20.7739 7.68529 18.6139 7.86746C17.2867 7.97155 16.1806 8.58311 15.2958 9.58503C14.7754 10.1836 13.7084 10.1966 13.1879 9.61106C12.1339 8.42697 10.8067 7.82842 9.03709 7.85444V7.86746Z" fill="black"/>
</svg>
