<svg width="32" height="29" viewBox="0 0 32 29" fill="none" xmlns="http://www.w3.org/2000/svg">
<path d="M28.685 18.5875L28.3358 19.5961L28.3358 19.5961L28.685 18.5875ZM28.685 10.5161L29.0342 11.5247L28.685 10.5161ZM3.01561 18.5875L3.36483 19.5961L3.36483 19.5961L3.01561 18.5875ZM3.01561 10.5161L2.66639 11.5247H2.66639L3.01561 10.5161ZM20.8747 11.0369C21.2916 10.62 21.2916 9.9442 20.8747 9.52735C20.4579 9.1105 19.782 9.1105 19.3652 9.52735L20.8747 11.0369ZM10.8259 18.0666C10.409 18.4835 10.409 19.1593 10.8259 19.5762C11.2427 19.993 11.9186 19.993 12.3354 19.5762L10.8259 18.0666ZM7.31102 26.2933C4.75646 26.2933 2.68557 24.2224 2.68557 21.6678H0.550753C0.550753 25.4014 3.57743 28.4281 7.31102 28.4281V26.2933ZM29.015 21.6678C29.015 24.2224 26.9442 26.2933 24.3896 26.2933V28.4281C28.1232 28.4281 31.1499 25.4014 31.1499 21.6678H29.015ZM24.3896 2.81025C26.9442 2.81025 29.015 4.88113 29.015 7.4357H31.1499C31.1499 3.7021 28.1232 0.675429 24.3896 0.675429V2.81025ZM7.31102 0.675429C3.57743 0.675429 0.550753 3.7021 0.550753 7.4357H2.68557C2.68557 4.88113 4.75646 2.81025 7.31102 2.81025V0.675429ZM29.0342 17.5788C27.779 17.1442 26.8802 15.9516 26.8802 14.5518H24.7454C24.7454 16.8892 26.2474 18.8731 28.3358 19.5961L29.0342 17.5788ZM26.8802 14.5518C26.8802 13.1519 27.779 11.9593 29.0342 11.5247L28.3358 9.50739C26.2474 10.2304 24.7454 12.2143 24.7454 14.5518H26.8802ZM4.8204 14.5518C4.8204 15.9516 3.92157 17.1442 2.66639 17.5788L3.36483 19.5961C5.45318 18.8731 6.95522 16.8892 6.95522 14.5518H4.8204ZM2.66639 11.5247C3.92157 11.9593 4.8204 13.1519 4.8204 14.5518H6.95522C6.95522 12.2143 5.45318 10.2304 3.36483 9.50739L2.66639 11.5247ZM31.1499 8.85891V7.4357H29.015V8.85891H31.1499ZM29.015 20.2446V21.6678H31.1499V20.2446H29.015ZM0.550753 20.2446V21.6678H2.68557V20.2446H0.550753ZM2.68557 8.85891V7.4357H0.550753V8.85891H2.68557ZM24.3896 26.2933H7.31102V28.4281H24.3896V26.2933ZM24.3896 0.675429H7.31102V2.81025H24.3896V0.675429ZM2.66639 17.5788C1.70049 17.9132 0.550753 18.8179 0.550753 20.2446H2.68557C2.68557 20.1651 2.71519 20.0608 2.83034 19.9333C2.95115 19.7997 3.14064 19.6738 3.36483 19.5961L2.66639 17.5788ZM29.0342 11.5247C30.0001 11.1903 31.1499 10.2856 31.1499 8.85891H29.015C29.015 8.93842 28.9854 9.04274 28.8703 9.17019C28.7495 9.30389 28.56 9.42977 28.3358 9.50739L29.0342 11.5247ZM3.36483 9.50739C3.14064 9.42977 2.95115 9.30389 2.83034 9.17019C2.71519 9.04274 2.68557 8.93842 2.68557 8.85891H0.550753C0.550753 10.2856 1.70049 11.1903 2.66639 11.5247L3.36483 9.50739ZM28.3358 19.5961C28.56 19.6738 28.7495 19.7997 28.8703 19.9333C28.9854 20.0608 29.015 20.1651 29.015 20.2446H31.1499C31.1499 18.8179 30.0001 17.9132 29.0342 17.5788L28.3358 19.5961ZM11.9365 10.2821C11.9365 10.4786 11.7772 10.6379 11.5807 10.6379V12.7728C12.9562 12.7728 14.0713 11.6577 14.0713 10.2821H11.9365ZM11.5807 10.6379C11.3842 10.6379 11.2249 10.4786 11.2249 10.2821H9.09004C9.09004 11.6577 10.2051 12.7728 11.5807 12.7728V10.6379ZM11.2249 10.2821C11.2249 10.0856 11.3842 9.92632 11.5807 9.92632V7.7915C10.2051 7.7915 9.09004 8.90659 9.09004 10.2821H11.2249ZM11.5807 9.92632C11.7772 9.92632 11.9365 10.0856 11.9365 10.2821H14.0713C14.0713 8.90659 12.9562 7.7915 11.5807 7.7915V9.92632ZM20.4758 18.8214C20.4758 19.0179 20.3165 19.1772 20.1199 19.1772V21.312C21.4955 21.312 22.6106 20.1969 22.6106 18.8214H20.4758ZM20.1199 19.1772C19.9234 19.1772 19.7641 19.0179 19.7641 18.8214H17.6293C17.6293 20.1969 18.7444 21.312 20.1199 21.312V19.1772ZM19.7641 18.8214C19.7641 18.6249 19.9234 18.4656 20.1199 18.4656V16.3308C18.7444 16.3308 17.6293 17.4459 17.6293 18.8214H19.7641ZM20.1199 18.4656C20.3165 18.4656 20.4758 18.6249 20.4758 18.8214H22.6106C22.6106 17.4459 21.4955 16.3308 20.1199 16.3308V18.4656ZM19.3652 9.52735L10.8259 18.0666L12.3354 19.5762L20.8747 11.0369L19.3652 9.52735Z" fill="#6C7275"/>
</svg>
