<svg width="26" height="26" viewBox="0 0 26 26" fill="none" xmlns="http://www.w3.org/2000/svg">
<g clip-path="url(#clip0_81_761)">
<path d="M13.1104 25.59C6.21772 25.59 0.610352 19.9826 0.610352 13.09C0.610352 6.19733 6.21772 0.589966 13.1104 0.589966C20.003 0.589966 25.6104 6.19733 25.6104 13.09C25.6104 19.9826 20.003 25.59 13.1104 25.59ZM13.1104 1.78049C6.8743 1.78049 1.80088 6.85392 1.80088 13.09C1.80088 19.326 6.8743 24.3995 13.1104 24.3995C19.3464 24.3995 24.4199 19.326 24.4199 13.09C24.4199 6.85392 19.3464 1.78049 13.1104 1.78049Z" fill="black"/>
<path d="M18.9304 13.6852H13.1104C12.9526 13.6852 12.8011 13.6226 12.6895 13.5109C12.5778 13.3992 12.5151 13.2478 12.5151 13.09V4.55839C12.5151 4.40053 12.5778 4.24912 12.6895 4.13748C12.8011 4.02585 12.9526 3.96313 13.1104 3.96313C13.2682 3.96313 13.4196 4.02585 13.5313 4.13748C13.643 4.24912 13.7056 4.40053 13.7056 4.55839V12.4947H18.9304C19.0882 12.4947 19.2396 12.5574 19.3513 12.6691C19.463 12.7807 19.5256 12.9321 19.5256 13.09C19.5256 13.2478 19.463 13.3992 19.3513 13.5109C19.2396 13.6226 19.0882 13.6852 18.9304 13.6852Z" fill="black"/>
</g>
<defs>
<clipPath id="clip0_81_761">
<rect width="25" height="25" fill="white" transform="translate(0.610352 0.589966)"/>
</clipPath>
</defs>
</svg>
