<svg width="10" height="18" viewBox="0 0 10 18" fill="none" xmlns="http://www.w3.org/2000/svg">
<g clip-path="url(#clip0_40_102)">
<path d="M0.724798 8.50783C0.58893 8.64842 0.520996 8.81248 0.520996 9C0.520996 9.18752 0.58893 9.35158 0.724798 9.49217L8.74112 17.7891C8.877 17.9297 9.04112 18 9.23362 18C9.42612 18 9.58462 17.9297 9.70919 17.7891C9.83375 17.6484 9.896 17.4844 9.896 17.2968C9.896 17.1094 9.82806 16.9453 9.69219 16.8047L2.15143 9L9.69219 1.19532C9.82806 1.05468 9.896 0.890627 9.896 0.703125C9.896 0.515625 9.83375 0.351562 9.70919 0.210937C9.58462 0.0703125 9.42612 0 9.23362 0C9.04112 0 8.877 0.0703125 8.74112 0.210937L0.724798 8.50783Z" fill="#161619"/>
</g>
<defs>
<clipPath id="clip0_40_102">
<rect width="10" height="18" fill="white"/>
</clipPath>
</defs>
</svg>
