<svg width="10" height="18" viewBox="0 0 10 18" fill="none" xmlns="http://www.w3.org/2000/svg">
<g clip-path="url(#clip0_40_104)">
<path d="M9.69218 9.49217C9.82806 9.35158 9.896 9.18752 9.896 9C9.896 8.81248 9.82806 8.64842 9.69218 8.50783L1.67589 0.210937C1.54002 0.0703125 1.37584 0 1.18336 0C0.99088 0 0.832361 0.0703125 0.707817 0.210937C0.58327 0.351562 0.520996 0.515625 0.520996 0.703125C0.520996 0.890627 0.588931 1.05468 0.724799 1.19532L8.26556 9L0.724799 16.8047C0.588931 16.9453 0.520996 17.1094 0.520996 17.2968C0.520996 17.4844 0.58327 17.6484 0.707817 17.7891C0.832361 17.9297 0.99088 18 1.18336 18C1.37584 18 1.54002 17.9297 1.67589 17.7891L9.69218 9.49217Z" fill="#161619"/>
</g>
<defs>
<clipPath id="clip0_40_104">
<rect width="10" height="18" fill="white"/>
</clipPath>
</defs>
</svg>
