<svg width="17" height="22" viewBox="0 0 17 22" fill="none" xmlns="http://www.w3.org/2000/svg">
<path d="M15.8191 7.85834L15.462 18.5833C15.4316 19.5018 15.0417 20.3724 14.3751 21.0103C13.7084 21.6482 12.8176 22.0032 11.8915 22H5.10759C4.18214 22.0033 3.29177 21.6488 2.62524 21.0116C1.95871 20.3744 1.56842 19.5047 1.5371 18.5868L1.18005 7.85834C1.17223 7.6234 1.25879 7.395 1.42066 7.22339C1.58254 7.05178 1.80648 6.95102 2.04321 6.94326C2.27995 6.93551 2.5101 7.02141 2.68302 7.18205C2.85594 7.3427 2.95748 7.56494 2.96529 7.79988L3.32234 18.5275C3.34012 18.9854 3.53603 19.4187 3.86892 19.7364C4.20181 20.054 4.64578 20.2313 5.10759 20.2309H11.8915C12.3539 20.2313 12.7984 20.0535 13.1314 19.7351C13.4644 19.4167 13.6599 18.9825 13.6768 18.5239L14.0338 7.79988C14.0416 7.56494 14.1432 7.3427 14.3161 7.18205C14.489 7.02141 14.7192 6.93551 14.9559 6.94326C15.1926 6.95102 15.4166 7.05178 15.5784 7.22339C15.7403 7.395 15.8269 7.6234 15.8191 7.85834ZM17 4.28927C17 4.52421 16.906 4.74953 16.7386 4.91566C16.5712 5.08179 16.3441 5.17512 16.1074 5.17512H0.892623C0.655884 5.17512 0.428842 5.08179 0.261443 4.91566C0.0940437 4.74953 0 4.52421 0 4.28927C0 4.05433 0.0940437 3.82901 0.261443 3.66288C0.428842 3.49676 0.655884 3.40343 0.892623 3.40343H3.65975C3.94258 3.40418 4.21557 3.30048 4.42561 3.11251C4.63564 2.92454 4.76769 2.66574 4.79606 2.38648C4.86193 1.73138 5.1712 1.12409 5.6636 0.682914C6.156 0.241742 6.79626 -0.00170376 7.45965 8.97617e-06H9.53946C10.2028 -0.00170376 10.8431 0.241742 11.3355 0.682914C11.8279 1.12409 12.1372 1.73138 12.203 2.38648C12.2314 2.66574 12.3635 2.92454 12.5735 3.11251C12.7835 3.30048 13.0565 3.40418 13.3394 3.40343H16.1065C16.3432 3.40343 16.5703 3.49676 16.7377 3.66288C16.9051 3.82901 16.9991 4.05433 16.9991 4.28927H17ZM6.34565 3.40343H10.6552C10.5379 3.13745 10.4612 2.85561 10.4276 2.56719C10.4055 2.34884 10.3025 2.1464 10.1386 1.99911C9.97466 1.85181 9.76148 1.77014 9.54035 1.76993H7.46054C7.23941 1.77014 7.02623 1.85181 6.86231 1.99911C6.69838 2.1464 6.59539 2.34884 6.57327 2.56719C6.53938 2.85565 6.46326 3.13749 6.34565 3.40343ZM7.24453 16.8249V9.2819C7.24453 9.04696 7.15048 8.82164 6.98308 8.65551C6.81568 8.48938 6.58864 8.39605 6.3519 8.39605C6.11516 8.39605 5.88812 8.48938 5.72072 8.65551C5.55332 8.82164 5.45928 9.04696 5.45928 9.2819V16.8284C5.45928 17.0634 5.55332 17.2887 5.72072 17.4548C5.88812 17.6209 6.11516 17.7143 6.3519 17.7143C6.58864 17.7143 6.81568 17.6209 6.98308 17.4548C7.15048 17.2887 7.24453 17.0634 7.24453 16.8284V16.8249ZM11.5416 16.8249V9.2819C11.5416 9.04696 11.4476 8.82164 11.2802 8.65551C11.1128 8.48938 10.8857 8.39605 10.649 8.39605C10.4123 8.39605 10.1852 8.48938 10.0178 8.65551C9.85041 8.82164 9.75637 9.04696 9.75637 9.2819V16.8284C9.75637 17.0634 9.85041 17.2887 10.0178 17.4548C10.1852 17.6209 10.4123 17.7143 10.649 17.7143C10.8857 17.7143 11.1128 17.6209 11.2802 17.4548C11.4476 17.2887 11.5416 17.0634 11.5416 16.8284V16.8249Z" fill="white"/>
</svg>
