<svg width="21" height="21" viewBox="0 0 21 21" fill="none" xmlns="http://www.w3.org/2000/svg">
<path d="M3.64114 20.9143H17.2663C18.2338 20.9143 19.1617 20.5299 19.8458 19.8458C20.5299 19.1617 20.9143 18.2338 20.9143 17.2663V3.64114C20.9125 2.67482 20.5273 1.7487 19.8434 1.06605C19.1595 0.383399 18.2326 -1.70713e-06 17.2663 0H3.64114C3.16298 0 2.6895 0.0941809 2.24774 0.277165C1.80597 0.46015 1.40458 0.728355 1.06647 1.06647C0.728355 1.40458 0.460151 1.80597 0.277167 2.24774C0.0941822 2.6895 0 3.16298 0 3.64114V17.2663C-1.70714e-06 18.2326 0.383399 19.1595 1.06605 19.8434C1.7487 20.5273 2.67482 20.9125 3.64114 20.9143ZM17.2663 1.71429C17.5199 1.71338 17.7712 1.76256 18.0058 1.85899C18.2403 1.95542 18.4536 2.0972 18.6332 2.27622C18.8129 2.45523 18.9554 2.66795 19.0527 2.90218C19.1499 3.1364 19.2 3.38753 19.2 3.64114V17.2663C19.2 17.7791 18.9963 18.271 18.6336 18.6336C18.271 18.9963 17.7791 19.2 17.2663 19.2H3.64114C3.38753 19.2 3.1364 19.1499 2.90218 19.0527C2.66795 18.9554 2.45523 18.8129 2.27622 18.6332C2.0972 18.4536 1.95542 18.2403 1.85899 18.0058C1.76256 17.7712 1.71338 17.5199 1.71429 17.2663V3.64114C1.71429 3.13011 1.91729 2.64 2.27865 2.27865C2.64001 1.91729 3.13011 1.71429 3.64114 1.71429H17.2663Z" fill="#6E6E6E"/>
<path d="M13.1825 11.3143C13.4192 11.3135 13.653 11.262 13.8682 11.1634C14.1692 11.0267 14.424 10.8055 14.6017 10.5268C14.7794 10.248 14.8724 9.92371 14.8693 9.59314V0.857143C14.8693 0.629814 14.779 0.411797 14.6183 0.251051C14.4576 0.0903058 14.2395 0 14.0122 0C13.7849 0 13.5669 0.0903058 13.4061 0.251051C13.2454 0.411797 13.1551 0.629814 13.1551 0.857143V9.59314L11.5436 8.16686C11.2408 7.89649 10.849 7.74706 10.4431 7.74706C10.0371 7.74706 9.64533 7.89649 9.34249 8.16686L7.68992 9.6L7.74477 0.857143C7.74477 0.629814 7.65447 0.411797 7.49372 0.251051C7.33298 0.0903058 7.11496 0 6.88763 0C6.6603 0 6.44229 0.0903058 6.28154 0.251051C6.1208 0.411797 6.03049 0.629814 6.03049 0.857143V9.59314C6.02744 9.92371 6.12042 10.248 6.29813 10.5268C6.47585 10.8055 6.73066 11.0267 7.03163 11.1634C7.32364 11.2977 7.64847 11.3439 7.96635 11.2964C8.28422 11.2489 8.58135 11.1098 8.82135 10.896L10.4533 9.48343L12.0853 10.9029C12.3885 11.1694 12.7788 11.3158 13.1825 11.3143ZM9.42478 16.6766H15.5962C15.8235 16.6766 16.0415 16.5863 16.2023 16.4255C16.363 16.2648 16.4533 16.0468 16.4533 15.8194C16.4533 15.5921 16.363 15.3741 16.2023 15.2133C16.0415 15.0526 15.8235 14.9623 15.5962 14.9623H9.42478C9.19745 14.9623 8.97943 15.0526 8.81868 15.2133C8.65794 15.3741 8.56763 15.5921 8.56763 15.8194C8.56763 16.0468 8.65794 16.2648 8.81868 16.4255C8.97943 16.5863 9.19745 16.6766 9.42478 16.6766Z" fill="#6E6E6E"/>
</svg>
