<svg width="23" height="20" viewBox="0 0 23 20" fill="none" xmlns="http://www.w3.org/2000/svg">
<path d="M6.87355 16.2058C7.75755 16.2058 8.47416 16.8866 8.47416 17.7264C8.47416 18.5661 7.75755 19.247 6.87355 19.247C5.98956 19.247 5.27295 18.5661 5.27295 17.7264C5.27295 16.8866 5.98956 16.2058 6.87355 16.2058Z" stroke="white" stroke-width="1.5"/>
<path d="M16.4773 16.2058C17.3613 16.2058 18.0779 16.8865 18.0779 17.7264C18.0779 18.5661 17.3613 19.247 16.4773 19.247C15.5934 19.247 14.8767 18.5661 14.8767 17.7264C14.8767 16.8865 15.5934 16.2058 16.4773 16.2058Z" stroke="white" stroke-width="1.5"/>
<path d="M9.00293 7.08081L9.56656 10.2415" stroke="white" stroke-width="1.5" stroke-linecap="round"/>
<path d="M15.4403 7.08081L14.8767 10.2415" stroke="white" stroke-width="1.5" stroke-linecap="round"/>
<path d="M1 1L1.27873 1.0931C2.66762 1.55699 3.36207 1.78893 3.75927 2.34113C4.15648 2.89333 4.15648 3.6268 4.15648 5.09375V7.85272C4.15648 10.8347 4.22396 11.8187 5.14847 12.7451C6.07298 13.6715 7.56095 13.6715 10.5369 13.6715H11.6707M16.1955 13.6715C17.8612 13.6715 18.694 13.6715 19.2827 13.2157C19.8715 12.7599 20.0396 11.985 20.3759 10.4352L20.9092 7.97716C21.2796 6.21424 21.4647 5.3328 20.991 4.74779C20.5173 4.1628 18.8988 4.1628 17.1008 4.1628H10.6287M4.15648 4.1628H6.33535" stroke="white" stroke-width="1.5" stroke-linecap="round"/>
</svg>
