<svg width="22" height="24" viewBox="0 0 22 24" fill="none" xmlns="http://www.w3.org/2000/svg">
<path d="M2.85356 15.9844C2.85356 15.9844 3.32915 15.5703 4.28033 14.7422C5.23152 13.9141 7.47141 13.5 11 13.5C14.5286 13.5 17.2441 14.3281 19.1464 15.9844C21.0488 17.6406 22 20.0156 22 23.1094C22 23.3594 21.9156 23.5703 21.7469 23.7422C21.5781 23.9141 21.371 24 21.1255 24H0.874477C0.72106 24 0.575314 23.9609 0.437238 23.8828C0.299163 23.8047 0.191771 23.6953 0.115063 23.5547C0.0383543 23.4141 0 23.2656 0 23.1094C0 20.0156 0.951186 17.6406 2.85356 15.9844ZM1.74895 22.2656H20.251C19.8828 17.6094 16.7992 15.2812 11 15.2812C5.20084 15.2812 2.11715 17.6094 1.74895 22.2656ZM11 0C12.0739 0 13.0481 0.257812 13.9226 0.773438C14.7971 1.28906 15.4798 2 15.9707 2.90625C16.4616 3.8125 16.7071 4.8125 16.7071 5.90625C16.7071 7.65625 16.1471 9.14844 15.0272 10.3828C13.9073 11.6172 12.5649 12.2344 11 12.2344C9.43515 12.2344 8.09275 11.6172 6.9728 10.3828C5.85286 9.14844 5.29289 7.65625 5.29289 5.90625C5.29289 4.21875 5.83752 2.8125 6.92678 1.6875C8.01604 0.5625 9.37378 0 11 0ZM8.16946 9.16406C8.16946 9.16406 8.36506 9.38672 8.75628 9.83203C9.14749 10.2773 9.8954 10.5 11 10.5C12.1046 10.5 13.0481 10.0547 13.8305 9.16406C14.613 8.27344 15.0042 7.1875 15.0042 5.90625C15.0042 4.71875 14.6206 3.72656 13.8536 2.92969C13.0865 2.13281 12.1353 1.73438 11 1.73438C9.83403 1.73438 8.87517 2.13281 8.12343 2.92969C7.37169 3.72656 6.99582 4.71875 6.99582 5.90625C6.99582 7.1875 7.38703 8.27344 8.16946 9.16406Z" fill="white"/>
</svg>
