<svg width="16" height="12" viewBox="0 0 16 12" fill="none" xmlns="http://www.w3.org/2000/svg">
<path d="M1.40021 6.5C1.12406 6.5 0.900206 6.27614 0.900206 6C0.900206 5.72386 1.12406 5.5 1.40021 5.5L1.40021 6.5ZM15.1055 6L15.4096 5.60309C15.533 5.69771 15.6055 5.84442 15.6055 6C15.6055 6.15558 15.533 6.30229 15.4096 6.39691L15.1055 6ZM8.55692 11.6469C8.33771 11.8148 8.02387 11.7733 7.85593 11.5541C7.68799 11.3349 7.72955 11.021 7.94876 10.8531L8.55692 11.6469ZM7.94876 1.14691C7.72955 0.978966 7.68799 0.665124 7.85593 0.445918C8.02387 0.226713 8.33771 0.185154 8.55692 0.353094L7.94876 1.14691ZM1.40021 5.5L15.1055 5.5L15.1055 6.5L1.40021 6.5L1.40021 5.5ZM7.94876 10.8531L14.8014 5.60309L15.4096 6.39691L8.55692 11.6469L7.94876 10.8531ZM14.8014 6.39691L7.94876 1.14691L8.55692 0.353094L15.4096 5.60309L14.8014 6.39691Z" fill="#1E1E1E"/>
</svg>
