<svg width="42" height="40" viewBox="0 0 42 40" fill="none" xmlns="http://www.w3.org/2000/svg">
<path d="M41.2849 25.6879C41.1233 25.7962 40.942 25.8715 40.7512 25.9095C40.5604 25.9475 40.3641 25.9475 40.1733 25.9094C39.9826 25.8713 39.8012 25.7959 39.6397 25.6875C39.4782 25.5792 39.3396 25.44 39.232 25.2779L38.5053 24.1871C36.5753 32.8146 28.7974 39.2559 19.7422 39.2559C9.13288 39.2559 0.500977 30.624 0.500977 20.0147C0.500977 9.40542 9.13288 0.773521 19.7422 0.773521C25.9171 0.773521 31.7605 3.77071 35.372 8.7897C35.4855 8.94753 35.5668 9.12617 35.6113 9.31542C35.6557 9.50467 35.6625 9.70083 35.6312 9.8927C35.5998 10.0846 35.531 10.2684 35.4286 10.4336C35.3262 10.5989 35.1923 10.7424 35.0345 10.8559C34.8767 10.9694 34.698 11.0507 34.5088 11.0952C34.3195 11.1397 34.1234 11.1464 33.9315 11.1151C33.7396 11.0838 33.5558 11.015 33.3906 10.9126C33.2253 10.8102 33.0818 10.6763 32.9683 10.5185C31.4571 8.42204 29.4703 6.71398 27.1708 5.53454C24.8714 4.3551 22.325 3.73793 19.7407 3.73371C10.7639 3.73371 3.45968 11.038 3.45968 20.0147C3.45968 28.9915 10.7639 36.2957 19.7407 36.2957C27.2092 36.2957 33.655 31.1184 35.4889 24.0983L34.8169 24.7658C34.679 24.9028 34.5155 25.0112 34.3357 25.0849C34.1559 25.1587 33.9633 25.1963 33.769 25.1956C33.5746 25.1949 33.3823 25.1559 33.203 25.0809C33.0238 25.0059 32.861 24.8963 32.7241 24.7584C32.5871 24.6205 32.4787 24.457 32.405 24.2772C32.3312 24.0974 32.2936 23.9048 32.2943 23.7105C32.295 23.5161 32.334 23.3238 32.409 23.1445C32.484 22.9653 32.5936 22.8025 32.7315 22.6656L36.4583 18.9653C36.6133 18.8115 36.8004 18.6938 37.0063 18.6208C37.2121 18.5477 37.4315 18.5212 37.6488 18.543C37.8661 18.5647 38.0759 18.6343 38.2632 18.7468C38.4504 18.8592 38.6104 19.0117 38.7318 19.1933L41.692 23.635C41.9095 23.9617 41.9885 24.3614 41.9116 24.7463C41.8347 25.1312 41.6083 25.4698 41.282 25.6879H41.2849ZM24.6161 15.2681L18.2621 21.6221L14.8682 18.2283C14.7308 18.0908 14.5677 17.9818 14.3881 17.9075C14.2086 17.8331 14.0161 17.7948 13.8218 17.7948C13.6275 17.7948 13.435 17.8331 13.2555 17.9075C13.0759 17.9818 12.9128 18.0908 12.7754 18.2283C12.638 18.3657 12.529 18.5288 12.4546 18.7084C12.3802 18.8879 12.3419 19.0803 12.3419 19.2747C12.3419 19.469 12.3802 19.6615 12.4546 19.841C12.529 20.0205 12.638 20.1837 12.7754 20.3211L17.2157 24.7614C17.3528 24.8993 17.5158 25.0088 17.6954 25.0834C17.875 25.1581 18.0676 25.1966 18.2621 25.1966C18.4566 25.1966 18.6492 25.1581 18.8287 25.0834C19.0083 25.0088 19.1714 24.8993 19.3085 24.7614L26.709 17.3609C26.9865 17.0834 27.1424 16.707 27.1424 16.3145C27.1424 15.922 26.9865 15.5456 26.709 15.2681C26.4314 14.9905 26.055 14.8346 25.6625 14.8346C25.2701 14.8346 24.8937 14.9905 24.6161 15.2681Z" fill="black"/>
</svg>
