<svg width="14" height="15" viewBox="0 0 14 15" fill="none" xmlns="http://www.w3.org/2000/svg">
<path d="M1.75518 2.62287C1.75518 2.62287 2.04285 2.3352 2.61821 1.75984C3.19356 1.18449 4.29632 0.896811 5.92649 0.896811C7.55666 0.896811 8.9471 1.47217 10.0978 2.62287C11.2485 3.77358 11.8239 5.16402 11.8239 6.79419C11.8239 8.42436 11.2485 9.8148 10.0978 10.9655C8.9471 12.1162 7.55666 12.6916 5.92649 12.6916C4.29632 12.6916 2.90588 12.1162 1.75518 10.9655C0.604468 9.8148 0.0291138 8.42436 0.0291138 6.79419C0.0291138 5.16402 0.604468 3.77358 1.75518 2.62287ZM5.91341 11.5932C6.78516 11.5932 7.59153 11.3796 8.33252 10.9524C9.0735 10.5253 9.65757 9.9412 10.0847 9.20021C10.5119 8.45923 10.7255 7.65286 10.7255 6.78111C10.7255 5.45606 10.2591 4.32714 9.32631 3.39437C8.39354 2.4616 7.26027 1.99521 5.92649 1.99521C4.59272 1.99521 3.45944 2.4616 2.52667 3.39437C1.5939 4.32714 1.12752 5.46041 1.12752 6.79419C1.12752 8.12796 1.5939 9.26124 2.52667 10.194C3.45944 11.1268 4.58836 11.5932 5.91341 11.5932ZM13.2623 13.3454C13.3669 13.4674 13.4192 13.6025 13.4192 13.7507C13.4192 13.8989 13.3669 14.0253 13.2623 14.13C13.1576 14.2346 13.0312 14.2869 12.883 14.2869C12.7348 14.2869 12.5997 14.2346 12.4777 14.13L9.36554 11.0178C9.26093 10.8958 9.20862 10.7606 9.20862 10.6124C9.20862 10.4642 9.26093 10.3378 9.36554 10.2332C9.47015 10.1286 9.59655 10.0763 9.74475 10.0763C9.89295 10.0763 10.0281 10.1286 10.1501 10.2332L13.2623 13.3454Z" fill="white"/>
</svg>
