<svg width="18" height="18" viewBox="0 0 18 18" fill="none" xmlns="http://www.w3.org/2000/svg">
<g clip-path="url(#clip0_1_7472)">
<path d="M17.581 9.16838C17.581 8.43093 17.5212 7.89279 17.3917 7.33472H8.9707V10.6632H13.9136C13.814 11.4904 13.2759 12.7361 12.08 13.5732L12.0632 13.6846L14.7258 15.7472L14.9102 15.7657C16.6044 14.201 17.581 11.899 17.581 9.16838Z" fill="#4285F4"/>
<path d="M8.96943 17.9381C11.3911 17.9381 13.424 17.1408 14.909 15.7656L12.0787 13.5731C11.3213 14.1013 10.3048 14.47 8.96943 14.47C6.59763 14.47 4.58458 12.9055 3.86699 10.7429L3.7618 10.7519L0.993237 12.8945L0.957031 12.9951C2.43193 15.925 5.4615 17.9381 8.96943 17.9381Z" fill="#34A853"/>
<path d="M3.86663 10.7431C3.67729 10.185 3.56771 9.58704 3.56771 8.9692C3.56771 8.35129 3.67729 7.75338 3.85667 7.19531L3.85166 7.07645L1.0484 4.89941L0.956679 4.94304C0.348802 6.15886 0 7.52419 0 8.9692C0 10.4142 0.348802 11.7795 0.956679 12.9953L3.86663 10.7431Z" fill="#FBBC05"/>
<path d="M8.96944 3.46802C10.6536 3.46802 11.7897 4.19551 12.4375 4.80346L14.9687 2.33196C13.4141 0.886947 11.3911 0 8.96944 0C5.4615 0 2.43193 2.01305 0.957031 4.94292L3.85702 7.19519C4.58458 5.03265 6.59763 3.46802 8.96944 3.46802Z" fill="#EB4335"/>
</g>
<defs>
<clipPath id="clip0_1_7472">
<rect width="17.5896" height="18" fill="white"/>
</clipPath>
</defs>
</svg>
