<svg width="44" height="44" viewBox="0 0 44 44" fill="none" xmlns="http://www.w3.org/2000/svg">
<g clip-path="url(#clip0_92_856)">
<path d="M43.7769 30.9222C43.9093 30.1839 43.8391 29.4236 43.5738 28.722C43.3084 28.0204 42.8579 27.4039 42.27 26.9381C41.6822 26.4722 40.979 26.1745 40.2354 26.0765C39.4917 25.9785 38.7355 26.0839 38.047 26.3815L37.9727 26.4153L30.1008 30.4019C29.9971 29.5474 29.6475 28.7414 29.0946 28.0817C28.5416 27.422 27.8091 26.937 26.9859 26.6856H26.9115L17.3302 23.7801C13.7757 22.6903 9.94265 22.965 6.57989 24.5504L1.37705 27.0099C1.05268 27.1631 0.802474 27.4389 0.681459 27.7766C0.621539 27.9439 0.59514 28.1212 0.60377 28.2987C0.612401 28.4761 0.655891 28.65 0.731758 28.8107C0.807625 28.9713 0.914383 29.1154 1.04594 29.2347C1.17749 29.3541 1.33126 29.4463 1.49848 29.5062C1.83618 29.6273 2.20812 29.6092 2.53248 29.4559L7.73533 26.9964C10.4777 25.6878 13.6091 25.4469 16.5194 26.3207L26.175 29.2465H26.2291C26.495 29.3364 26.735 29.4896 26.9284 29.693C27.1218 29.8963 27.2628 30.1437 27.3393 30.4137C27.4158 30.6837 27.4255 30.9683 27.3674 31.2429C27.3094 31.5175 27.1854 31.7738 27.0061 31.9898L26.9588 32.0439C26.7456 32.2822 26.4702 32.4564 26.1635 32.5471C25.8568 32.6378 25.5309 32.6414 25.2223 32.5574H25.1682L18.0397 30.4154C17.6965 30.3115 17.3261 30.3481 17.0099 30.5173C16.6938 30.6865 16.4578 30.9743 16.3538 31.3175C16.2499 31.6607 16.2865 32.0311 16.4557 32.3472C16.6249 32.6634 16.9127 32.8994 17.2559 33.0033L24.3371 35.152H24.4115C24.8254 35.2781 25.2558 35.3418 25.6885 35.3412C26.844 35.3523 27.9586 34.9138 28.7967 34.1182L39.1484 28.8478C39.3887 28.747 39.6517 28.7127 39.9098 28.7485C40.1679 28.7843 40.4116 28.8888 40.6155 29.0512C40.8193 29.2136 40.9757 29.4278 41.0682 29.6714C41.1608 29.9149 41.1862 30.1789 41.1417 30.4357C41.079 30.7919 40.8864 31.1121 40.6011 31.3344C40.0403 31.6655 35.0199 34.5169 27.0872 39.0238C26.6359 39.28 26.1371 39.4415 25.6213 39.4984C25.1055 39.5553 24.5834 39.5065 24.0871 39.3549L11.6138 35.571C9.82386 35.0327 7.89791 35.1772 6.20826 35.9764L5.70825 36.1453C5.38389 36.2985 5.13368 36.5743 5.01266 36.912C4.89165 37.2497 4.90974 37.6217 5.06296 37.946C5.21618 38.2704 5.49198 38.5206 5.82968 38.6416C6.16738 38.7626 6.53932 38.7446 6.86368 38.5913L7.28937 38.3886C8.38699 37.8869 9.6316 37.8099 10.7827 38.1724L23.256 41.9563C23.8691 42.1444 24.5067 42.24 25.148 42.2401C26.2799 42.2391 27.3924 41.9458 28.3778 41.3887C41.939 33.6925 42.0471 33.6182 42.1282 33.5507C43.0007 32.9242 43.5927 31.9804 43.7769 30.9222Z" fill="black"/>
<path d="M22.2222 1.76591C20.0252 1.76591 17.8775 2.41741 16.0507 3.63802C14.2239 4.85863 12.8001 6.59353 11.9594 8.62332C11.1186 10.6531 10.8986 12.8867 11.3272 15.0415C11.7558 17.1963 12.8138 19.1756 14.3674 20.7292C15.9209 22.2827 17.9002 23.3407 20.055 23.7693C22.2099 24.1979 24.4434 23.9779 26.4732 23.1372C28.503 22.2964 30.2379 20.8726 31.4585 19.0458C32.6791 17.2191 33.3306 15.0714 33.3306 12.8743C33.3288 9.92874 32.1579 7.10432 30.0751 5.02147C27.9922 2.93863 25.1678 1.76771 22.2222 1.76591ZM22.2222 21.28C20.5597 21.28 18.9346 20.787 17.5523 19.8634C16.17 18.9397 15.0926 17.627 14.4564 16.091C13.8202 14.5551 13.6537 12.865 13.9781 11.2345C14.3024 9.60394 15.103 8.1062 16.2785 6.93065C17.4541 5.7551 18.9518 4.95454 20.5823 4.6302C22.2129 4.30587 23.903 4.47233 25.4389 5.10853C26.9748 5.74474 28.2876 6.82211 29.2112 8.20441C30.1348 9.58671 30.6278 11.2119 30.6278 12.8743C30.626 15.1031 29.7399 17.2401 28.1639 18.816C26.5879 20.392 24.451 21.2782 22.2222 21.28Z" fill="black"/>
<path d="M25.3236 7.86747L17.2153 15.9758C16.9599 16.2285 16.8154 16.5723 16.8135 16.9315C16.8116 17.2907 16.9525 17.636 17.2052 17.8914C17.4578 18.1468 17.8016 18.2913 18.1609 18.2932C18.5201 18.2951 18.8654 18.1542 19.1208 17.9015L27.2291 9.7932C27.4505 9.53468 27.5662 9.20213 27.553 8.86202C27.5399 8.52191 27.3989 8.19928 27.1582 7.9586C26.9176 7.71793 26.5949 7.57693 26.2548 7.5638C25.9147 7.55066 25.5822 7.66635 25.3236 7.88774V7.86747Z" fill="black"/>
<path d="M19.8572 10.1716C20.6036 10.1716 21.2086 9.56661 21.2086 8.82026C21.2086 8.07391 20.6036 7.46887 19.8572 7.46887C19.1109 7.46887 18.5059 8.07391 18.5059 8.82026C18.5059 9.56661 19.1109 10.1716 19.8572 10.1716Z" fill="black"/>
<path d="M24.5872 18.2799C25.3336 18.2799 25.9386 17.6749 25.9386 16.9285C25.9386 16.1821 25.3336 15.5771 24.5872 15.5771C23.8409 15.5771 23.2358 16.1821 23.2358 16.9285C23.2358 17.6749 23.8409 18.2799 24.5872 18.2799Z" fill="black"/>
</g>
<defs>
<clipPath id="clip0_92_856">
<rect width="43.2444" height="43.2444" fill="white" transform="translate(0.599976 0.333374)"/>
</clipPath>
</defs>
</svg>
