<svg width="142" height="13" viewBox="0 0 142 13" fill="none" xmlns="http://www.w3.org/2000/svg">
<path d="M48.0781 5.25896C39.3935 5.60181 30.732 5.49272 22.0821 5.42519C20.5421 5.4148 17.983 6.16805 17.9541 3.89272C17.9309 1.95506 20.4031 2.04337 22.0416 1.87194C38.1545 0.188828 54.3426 0.708308 70.5017 0.869347C90.8006 1.07194 111.076 2.07974 131.352 2.95766C133.946 3.07194 136.534 3.27454 139.122 3.47194C140.222 3.55506 141.345 3.80961 141.333 5.04597C141.322 6.27714 140.222 6.52649 139.104 6.57844C138.143 6.62519 137.176 6.6148 136.215 6.6148C117.538 6.56805 98.8599 6.58363 80.188 7.09272C55.1647 7.77324 30.2225 9.37324 5.40769 12.4018C3.42759 12.646 0.254818 13.1239 0.0174386 11.6174C-0.266259 9.82519 2.89494 9.68493 4.79397 9.39922C14.0923 7.98103 23.5122 7.44078 32.88 6.5213C37.9402 6.02259 43.012 5.67454 48.0839 5.25896H48.0781Z" fill="#F71111"/>
</svg>
