<svg width="21" height="19" viewBox="0 0 21 19" fill="none" xmlns="http://www.w3.org/2000/svg">
<path d="M5.15196 3.4517C4.93395 3.7787 5.02232 4.22052 5.34932 4.43852C5.67632 4.65652 6.11814 4.56816 6.33614 4.24116L5.15196 3.4517ZM7.07833 1.84501L7.67042 2.23974V2.23974L7.07833 1.84501ZM13.8979 1.84501L14.49 1.45028V1.45028L13.8979 1.84501ZM14.6401 4.24116C14.8581 4.56816 15.2999 4.65652 15.6269 4.43852C15.9539 4.22052 16.0422 3.7787 15.8242 3.4517L14.6401 4.24116ZM12.6229 10.9625C12.6229 12.1415 11.6671 13.0973 10.4881 13.0973V14.5205C12.4531 14.5205 14.0461 12.9275 14.0461 10.9625H12.6229ZM10.4881 13.0973C9.30907 13.0973 8.35327 12.1415 8.35327 10.9625H6.93006C6.93006 12.9275 8.52305 14.5205 10.4881 14.5205V13.0973ZM8.35327 10.9625C8.35327 9.78347 9.30907 8.82768 10.4881 8.82768V7.40446C8.52305 7.40446 6.93006 8.99745 6.93006 10.9625H8.35327ZM10.4881 8.82768C11.6671 8.82768 12.6229 9.78347 12.6229 10.9625H14.0461C14.0461 8.99745 12.4531 7.40446 10.4881 7.40446V8.82768ZM6.33614 4.24116L7.67042 2.23974L6.48624 1.45028L5.15196 3.4517L6.33614 4.24116ZM8.65724 1.71161H12.3189V0.288393H8.65724V1.71161ZM13.3058 2.23974L14.6401 4.24116L15.8242 3.4517L14.49 1.45028L13.3058 2.23974ZM12.3189 1.71161C12.7155 1.71161 13.0858 1.90979 13.3058 2.23974L14.49 1.45028C14.006 0.724398 13.1914 0.288393 12.3189 0.288393V1.71161ZM7.67042 2.23974C7.89039 1.90979 8.2607 1.71161 8.65724 1.71161V0.288393C7.78484 0.288393 6.97016 0.724397 6.48624 1.45028L7.67042 2.23974ZM4.79524 4.55804H16.181V3.13482H4.79524V4.55804ZM19.2646 7.64167V14.2833H20.6878V7.64167H19.2646ZM16.181 17.367H4.79524V18.7902H16.181V17.367ZM1.71161 14.2833V7.64167H0.288393V14.2833H1.71161ZM4.79524 17.367C3.0922 17.367 1.71161 15.9864 1.71161 14.2833H0.288393C0.288393 16.7724 2.30618 18.7902 4.79524 18.7902V17.367ZM19.2646 14.2833C19.2646 15.9864 17.884 17.367 16.181 17.367V18.7902C18.67 18.7902 20.6878 16.7724 20.6878 14.2833H19.2646ZM16.181 4.55804C17.884 4.55804 19.2646 5.93862 19.2646 7.64167H20.6878C20.6878 5.1526 18.67 3.13482 16.181 3.13482V4.55804ZM4.79524 3.13482C2.30618 3.13482 0.288393 5.1526 0.288393 7.64167H1.71161C1.71161 5.93862 3.0922 4.55804 4.79524 4.55804V3.13482Z" fill="#FEFEFE"/>
</svg>
